<?xml version="1.0" encoding="UTF-8"?>
<svg version="1.1" xmlns="http://www.w3.org/2000/svg" width="300" height="300">
<path d="M0 0 C22.55757765 21.32145826 34.91140426 49.90669265 36.43359375 80.765625 C37.13207309 112.1971955 24.43190404 140.42535881 3.3046875 163.15234375 C-17.94537579 184.97245344 -47.01642038 196.56940581 -77.3203125 197.33984375 C-109.53597808 196.87961996 -137.62343921 183.73395577 -160.4140625 161.5 C-181.30304355 139.54722825 -191.83747263 110.2284824 -191.6953125 80.15234375 C-190.62884026 53.5184558 -181.0087256 29.35680116 -163.6953125 9.15234375 C-162.62990234 7.88583984 -162.62990234 7.88583984 -161.54296875 6.59375 C-144.30275545 -13.31278802 -118.77892954 -26.45561637 -92.6953125 -29.84765625 C-91.80199219 -29.97011719 -90.90867187 -30.09257813 -89.98828125 -30.21875 C-56.94738155 -33.87991672 -24.28980569 -22.3270924 0 0 Z M-161.6953125 12.15234375 C-182.11646481 36.86830072 -188.53460892 65.57622244 -186.6953125 97.15234375 C-186.01832079 103.34399705 -184.57670374 109.22560092 -182.6953125 115.15234375 C-182.38182861 116.17110596 -182.38182861 116.17110596 -182.06201172 117.21044922 C-177.28865721 132.31713295 -169.29570054 145.39817198 -158.6953125 157.15234375 C-157.93734375 157.9928125 -157.179375 158.83328125 -156.3984375 159.69921875 C-138.11259416 178.94118462 -111.78079151 191.57640922 -85.12890625 192.48828125 C-71.49414793 192.664276 -58.74081133 192.31297129 -45.6953125 188.15234375 C-45.01082031 187.93803711 -44.32632813 187.72373047 -43.62109375 187.50292969 C-15.48099346 178.43527073 7.08337125 158.55455473 20.5546875 132.33984375 C32.84474719 107.46252948 35.98588422 76.69952344 27.3046875 50.15234375 C17.12476067 21.04294391 -2.80774731 -2.5118846 -30.58129883 -16.14746094 C-44.93826405 -22.85926858 -59.8358259 -26.34586002 -75.6953125 -25.84765625 C-75.6953125 -25.51765625 -75.6953125 -25.18765625 -75.6953125 -24.84765625 C-75.10363281 -24.70070313 -74.51195312 -24.55375 -73.90234375 -24.40234375 C-67.96876821 -22.71809882 -65.00254894 -21.11856433 -61.6953125 -15.84765625 C-60.42931124 -11.96525237 -60.70778603 -9.61030898 -61.9453125 -5.84765625 C-62.82915102 -2.89092002 -62.82915102 -2.89092002 -61.75390625 -0.109375 C-60.46549894 1.36990746 -59.08244443 2.76521182 -57.6953125 4.15234375 C-56.24514695 8.5028404 -56.18461143 12.6056856 -56.6953125 17.15234375 C-59.44574991 22.65321858 -63.15239258 26.22319993 -68.9453125 28.33984375 C-71.86547289 29.83114614 -71.86547289 29.83114614 -72.296875 32.33984375 C-72.54665309 34.62352914 -72.6856836 36.85585182 -72.6953125 39.15234375 C-70.67736357 39.66630987 -68.68227048 40.15471503 -66.6328125 40.52734375 C-64.31941642 41.27360055 -63.3901835 42.45747275 -61.6953125 44.15234375 C-60.7053125 44.15234375 -59.7153125 44.15234375 -58.6953125 44.15234375 C-58.6953125 44.81234375 -58.6953125 45.47234375 -58.6953125 46.15234375 C-63.38143187 46.99584524 -67.03277931 47.04044531 -71.6953125 46.15234375 C-73.24920474 47.70623599 -72.85834289 49.21267692 -72.90063477 51.3762207 C-72.92057495 52.28220001 -72.94051514 53.18817932 -72.96105957 54.12161255 C-72.9777771 55.11788666 -72.99449463 56.11416077 -73.01171875 57.140625 C-73.03254517 58.17508759 -73.05337158 59.20955017 -73.0748291 60.27536011 C-73.14122897 63.67177666 -73.19986899 67.06827315 -73.2578125 70.46484375 C-73.30067592 72.78621464 -73.34356337 75.10758508 -73.38647461 77.42895508 C-73.72178919 96.33778145 -73.815577 115.24121393 -73.6953125 134.15234375 C-59.64773576 131.80558028 -49.06419211 125.04855654 -40.7265625 113.40234375 C-32.40083721 100.13762888 -29.64512464 85.76198744 -32.35546875 70.4140625 C-36.13353814 55.44898243 -45.69176705 43.16301739 -58.06640625 34.11328125 C-59.66720693 32.98297612 -59.66720693 32.98297612 -61.6953125 33.15234375 C-61.6953125 32.16234375 -61.6953125 31.17234375 -61.6953125 30.15234375 C-50.07437404 30.74323893 -39.91252392 35.16903897 -30.6953125 42.15234375 C-29.6640625 42.89484375 -28.6328125 43.63734375 -27.5703125 44.40234375 C-15.64293647 55.81113821 -10.02925864 71.56925307 -9.59765625 87.83203125 C-10.20556049 101.14661675 -14.23247645 115.7026465 -23.9140625 125.3671875 C-25.93075646 126.96799877 -25.93075646 126.96799877 -25.6953125 129.15234375 C-26.3553125 129.15234375 -27.0153125 129.15234375 -27.6953125 129.15234375 C-27.6953125 129.81234375 -27.6953125 130.47234375 -27.6953125 131.15234375 C-28.2625 131.4153125 -28.8296875 131.67828125 -29.4140625 131.94921875 C-31.86636694 133.24255739 -33.96724972 134.75357729 -36.1953125 136.40234375 C-41.7151472 140.33213652 -47.57268893 143.28039146 -53.6953125 146.15234375 C-53.0353125 147.26609375 -52.3753125 148.37984375 -51.6953125 149.52734375 C-49.27796716 154.39656793 -48.79978691 158.7971007 -49.6953125 164.15234375 C-51.69493599 168.15159073 -53.41847752 170.62490269 -57.6953125 172.15234375 C-57.4684375 173.36921875 -57.2415625 174.58609375 -57.0078125 175.83984375 C-56.62796653 178.91116974 -56.64144247 180.02475684 -57.8828125 182.96484375 C-61.30324909 187.09295688 -64.15266765 188.52074395 -69.4453125 189.33984375 C-70.43015625 189.49839844 -71.415 189.65695312 -72.4296875 189.8203125 C-73.17734375 189.92988281 -73.925 190.03945313 -74.6953125 190.15234375 C-73.9115625 189.38921875 -73.1278125 188.62609375 -72.3203125 187.83984375 C-68.57080747 184.12287328 -68.57080747 184.12287328 -67.6328125 179.15234375 C-67.9834375 178.16234375 -68.3340625 177.17234375 -68.6953125 176.15234375 C-71.0053125 175.16234375 -73.3153125 174.17234375 -75.6953125 173.15234375 C-76.0253125 178.76234375 -76.3553125 184.37234375 -76.6953125 190.15234375 C-77.6853125 189.82234375 -78.6753125 189.49234375 -79.6953125 189.15234375 C-80.3553125 184.20234375 -81.0153125 179.25234375 -81.6953125 174.15234375 C-85.6667294 174.78076348 -85.6667294 174.78076348 -87.6953125 177.15234375 C-88.06783857 180.57958358 -88.06313022 182.51702223 -86.3203125 185.52734375 C-85.5159375 186.33171875 -85.5159375 186.33171875 -84.6953125 187.15234375 C-84.0353125 187.15234375 -83.3753125 187.15234375 -82.6953125 187.15234375 C-82.6953125 188.14234375 -82.6953125 189.13234375 -82.6953125 190.15234375 C-90.86488856 188.98276769 -90.86488856 188.98276769 -94.1953125 185.65234375 C-96.72864583 181.43012153 -96.72864583 181.43012153 -96.3203125 178.02734375 C-96.80021808 173.06831938 -98.68549846 171.55595254 -102 168.046875 C-104.91950894 164.78429012 -105.75654513 162.00973341 -105.61328125 157.6640625 C-105.29783882 153.9696435 -104.87072109 150.67856953 -103.6953125 147.15234375 C-104.65050781 146.67925781 -105.60570313 146.20617187 -106.58984375 145.71875 C-123.9963605 136.90249165 -138.10216091 125.13135199 -144.6953125 106.15234375 C-149.09940211 90.85616973 -148.3245283 75.95996713 -141.4140625 61.46484375 C-133.11699395 46.71449967 -120.63986523 37.43965657 -104.6953125 32.15234375 C-101.04664995 31.29802276 -97.40974572 30.64223947 -93.6953125 30.15234375 C-95.95668021 34.41266791 -98.8950006 37.40431892 -102.3828125 40.65234375 C-113.03828716 50.98531615 -120.55875296 64.09292989 -121.6953125 79.15234375 C-121.7984375 80.45171875 -121.9015625 81.75109375 -122.0078125 83.08984375 C-121.95998711 87.6970226 -120.96415081 92.00952921 -119.8828125 96.46484375 C-119.7175708 97.15892334 -119.5523291 97.85300293 -119.38208008 98.56811523 C-118.33457964 102.62650164 -117.28596817 104.69813619 -114.6953125 108.15234375 C-112.7153125 103.53234375 -110.7353125 98.91234375 -108.6953125 94.15234375 C-106.87 94.18328125 -106.87 94.18328125 -105.0078125 94.21484375 C-101.76525233 94.22057265 -98.86461295 93.87675528 -95.6953125 93.15234375 C-94.7053125 93.15234375 -93.7153125 93.15234375 -92.6953125 93.15234375 C-90.00763672 90.7148435 -90.00763672 90.7148435 -87.6953125 88.15234375 C-89.08048259 84.87830535 -91.07892761 82.49008557 -93.38671875 79.8125 C-95.51445389 77.11313453 -97.0642706 74.17279171 -98.6953125 71.15234375 C-103.68997133 71.62802554 -106.80434275 72.96882305 -110.6953125 76.15234375 C-112.10721814 78.75671608 -112.10721814 78.75671608 -112.6953125 81.15234375 C-108.60567431 78.8669577 -105.23169146 76.19527449 -101.6953125 73.15234375 C-101.6953125 74.14234375 -101.6953125 75.13234375 -101.6953125 76.15234375 C-103.70703125 78.16015625 -103.70703125 78.16015625 -106.3828125 80.27734375 C-107.25292969 80.98117188 -108.12304688 81.685 -109.01953125 82.41015625 C-111.69564245 84.15255858 -113.55542768 84.77895204 -116.6953125 85.15234375 C-117.47479031 82.86485657 -117.8067968 81.53907893 -117.12890625 79.1875 C-114.25238978 73.49086934 -111.19131007 69.45025902 -105.0859375 67.18359375 C-102.63442647 66.43567513 -100.18547987 65.75766112 -97.6953125 65.15234375 C-97.3653125 66.14234375 -97.0353125 67.13234375 -96.6953125 68.15234375 C-95.7053125 66.66734375 -95.7053125 66.66734375 -94.6953125 65.15234375 C-89.36197917 62.15234375 -89.36197917 62.15234375 -86.6953125 62.15234375 C-86.3653125 63.14234375 -86.0353125 64.13234375 -85.6953125 65.15234375 C-87.6753125 65.48234375 -89.6553125 65.81234375 -91.6953125 66.15234375 C-90.3753125 71.43234375 -89.0553125 76.71234375 -87.6953125 82.15234375 C-86.0453125 81.82234375 -84.3953125 81.49234375 -82.6953125 81.15234375 C-82.44140205 74.14222753 -82.26650587 67.13329813 -82.14599609 60.11962891 C-82.09575719 57.73506366 -82.02754984 55.35080572 -81.94091797 52.96728516 C-81.81934313 49.53601404 -81.76285704 46.10881544 -81.71875 42.67578125 C-81.66713715 41.61306 -81.61552429 40.55033875 -81.56234741 39.45541382 C-81.56002649 36.38080488 -81.65614823 34.05024933 -82.6953125 31.15234375 C-85.09944923 29.04038868 -87.39785098 27.72407926 -90.29190063 26.3710022 C-94.67459149 24.14874337 -96.17004683 20.72814077 -97.6953125 16.15234375 C-98.28386828 10.03136369 -97.024831 7.09905694 -93.6953125 2.15234375 C-91.9453125 0.21484375 -91.9453125 0.21484375 -90.6953125 -0.84765625 C-91.1696875 -1.32203125 -91.6440625 -1.79640625 -92.1328125 -2.28515625 C-94.40383679 -6.00963608 -94.80071521 -9.51861637 -94.6953125 -13.84765625 C-93.4524757 -17.96455315 -91.91202006 -19.9643525 -88.3203125 -22.16015625 C-85.3138506 -23.5597161 -82.95733834 -24.45225918 -79.6953125 -24.84765625 C-79.6953125 -25.17765625 -79.6953125 -25.50765625 -79.6953125 -25.84765625 C-110.69006369 -28.03552104 -141.66561555 -10.47048361 -161.6953125 12.15234375 Z M-89.6953125 -17.84765625 C-92.11559471 -14.09503627 -91.82413366 -11.25601532 -91.25390625 -6.96875 C-90.49220174 -4.0764035 -88.98662215 -2.69548661 -86.6953125 -0.84765625 C-86.6953125 -0.18765625 -86.6953125 0.47234375 -86.6953125 1.15234375 C-87.6440625 1.77109375 -88.5928125 2.38984375 -89.5703125 3.02734375 C-93.161286 5.40958971 -93.161286 5.40958971 -94.6953125 9.15234375 C-95.16232828 13.35548576 -94.99992433 15.57696584 -93.0078125 19.33984375 C-89.87098256 23.15490719 -86.48622024 26.86573538 -81.375 27.390625 C-73.43625487 27.60070321 -68.33309177 26.23046467 -62.2578125 21.08984375 C-59.36223518 17.49932788 -59.36304766 13.86244572 -59.40625 9.44140625 C-59.85064892 5.92224724 -61.42957623 3.80649195 -63.6953125 1.15234375 C-64.6853125 0.49234375 -65.6753125 -0.16765625 -66.6953125 -0.84765625 C-66.22328735 -3.05044029 -65.7662868 -4.73330877 -64.5703125 -6.66015625 C-63.19527745 -10.09774387 -63.70557182 -12.32170508 -64.6953125 -15.84765625 C-67.6718575 -19.3321745 -71.09877957 -21.54070178 -75.7109375 -22.0859375 C-81.60549935 -22.28173588 -84.91560991 -21.35927448 -89.6953125 -17.84765625 Z M-78.6953125 32.15234375 C-78.82842084 39.28278821 -78.95892622 46.41327589 -79.08646393 53.54382229 C-79.14581471 56.8579336 -79.20618336 60.17201846 -79.26806641 63.48608398 C-79.58903333 80.7102174 -79.77083537 97.92514238 -79.6953125 115.15234375 C-78.7053125 115.15234375 -77.7153125 115.15234375 -76.6953125 115.15234375 C-76.6953125 87.76234375 -76.6953125 60.37234375 -76.6953125 32.15234375 C-77.3553125 32.15234375 -78.0153125 32.15234375 -78.6953125 32.15234375 Z M-51.6953125 35.15234375 C-48.52578403 38.41243018 -45.29593261 41.37472252 -41.6953125 44.15234375 C-41.0353125 43.82234375 -40.3753125 43.49234375 -39.6953125 43.15234375 C-41.12447101 41.81007329 -42.56393922 40.47877279 -44.0078125 39.15234375 C-44.80832031 38.40984375 -45.60882813 37.66734375 -46.43359375 36.90234375 C-48.61414335 34.84636737 -48.61414335 34.84636737 -51.6953125 35.15234375 Z M-111.6953125 40.15234375 C-113.37111302 41.1244141 -113.37111302 41.1244141 -114.8828125 42.58984375 C-115.8109375 43.43546875 -116.7390625 44.28109375 -117.6953125 45.15234375 C-116.7053125 45.48234375 -115.7153125 45.81234375 -114.6953125 46.15234375 C-113.01951198 45.1802734 -113.01951198 45.1802734 -111.5078125 43.71484375 C-110.5796875 42.86921875 -109.6515625 42.02359375 -108.6953125 41.15234375 C-109.6853125 40.82234375 -110.6753125 40.49234375 -111.6953125 40.15234375 Z M-35.6953125 47.15234375 C-34.85997327 52.79088353 -33.38234175 55.81925628 -29.6328125 60.15234375 C-25.69859923 64.75756288 -25.09013487 67.23000819 -24.6953125 73.15234375 C-23.6434375 74.66828125 -23.6434375 74.66828125 -22.5703125 76.21484375 C-20.6953125 79.15234375 -20.6953125 79.15234375 -20.6953125 82.52734375 C-21.66512009 86.04289628 -22.98828984 88.71173462 -24.70703125 91.88671875 C-26.54325644 96.09624684 -27.06349465 100.62985806 -27.6953125 105.15234375 C-26.7671875 104.40984375 -25.8390625 103.66734375 -24.8828125 102.90234375 C-24.36074219 102.4846875 -23.83867187 102.06703125 -23.30078125 101.63671875 C-19.04165854 97.69884374 -18.30501113 94.98275184 -18.0703125 89.15234375 C-17.7690023 82.38003825 -17.7690023 82.38003825 -17.07617188 80.23925781 C-16.56922286 77.46143718 -17.27294731 76.025787 -18.390625 73.44921875 C-18.77734375 72.55074219 -19.1640625 71.65226562 -19.5625 70.7265625 C-19.97757813 69.79457031 -20.39265625 68.86257812 -20.8203125 67.90234375 C-21.2121875 66.98582031 -21.6040625 66.06929687 -22.0078125 65.125 C-26.01557491 54.95200809 -26.01557491 54.95200809 -33.5078125 47.65234375 C-34.590625 47.40484375 -34.590625 47.40484375 -35.6953125 47.15234375 Z M-124.6953125 49.15234375 C-124.0353125 50.47234375 -123.3753125 51.79234375 -122.6953125 53.15234375 C-122.32221351 54.81056148 -121.98830273 56.47811389 -121.6953125 58.15234375 C-121.3688123 59.48736679 -121.03660391 60.82102521 -120.6953125 62.15234375 C-119.88032688 60.54943845 -119.06841323 58.94497097 -118.2578125 57.33984375 C-117.80535156 56.44652344 -117.35289063 55.55320312 -116.88671875 54.6328125 C-115.612152 52.11234897 -115.612152 52.11234897 -114.6953125 49.15234375 C-117.9953125 49.15234375 -121.2953125 49.15234375 -124.6953125 49.15234375 Z M-128.6953125 52.15234375 C-128.746875 52.70921875 -128.7984375 53.26609375 -128.8515625 53.83984375 C-129.80737437 60.26985089 -132.17530147 62.93811275 -136.9140625 67.23046875 C-139.64521737 70.17724111 -139.77428855 72.20354105 -139.6953125 76.15234375 C-139.3653125 76.81234375 -139.0353125 77.47234375 -138.6953125 78.15234375 C-138.59821245 79.90014457 -138.56552974 81.65185432 -138.5703125 83.40234375 C-138.57160156 84.39234375 -138.57289063 85.38234375 -138.57421875 86.40234375 C-138.6953125 89.15234375 -138.6953125 89.15234375 -139.5078125 92.40234375 C-139.75425833 96.01688265 -138.22471219 97.3132929 -136.02734375 100.03125 C-134.355897 102.69282063 -133.81045257 105.15221347 -133.1328125 108.21484375 C-132.02051316 113.12493862 -131.18371456 116.47014157 -127.6953125 120.15234375 C-124.08114733 121.59151807 -124.08114733 121.59151807 -120.6953125 122.15234375 C-121.1490625 120.97671875 -121.6028125 119.80109375 -122.0703125 118.58984375 C-123.10319591 115.87071811 -123.91246998 113.29819099 -124.6328125 110.46484375 C-125.45399964 107.09724423 -125.45399964 107.09724423 -127.75390625 104.94140625 C-130.267514 101.33030779 -130.07861106 98.42980666 -129.8203125 94.21484375 C-129.56032164 89.0583583 -129.98347441 85.05961295 -131.6953125 80.15234375 C-130.45512831 76.7762868 -129.05860643 74.54217038 -126.609375 71.9140625 C-124.18628341 68.41788749 -124.15948075 66.24653229 -124.1953125 62.02734375 C-124.185 60.80789062 -124.1746875 59.5884375 -124.1640625 58.33203125 C-124.38272527 55.06183408 -124.38272527 55.06183408 -126.7265625 53.22265625 C-127.37625 52.86945313 -128.0259375 52.51625 -128.6953125 52.15234375 Z M-133.6953125 57.15234375 C-135.1803125 59.13234375 -135.1803125 59.13234375 -136.6953125 61.15234375 C-136.3653125 61.81234375 -136.0353125 62.47234375 -135.6953125 63.15234375 C-134.7053125 62.16234375 -133.7153125 61.17234375 -132.6953125 60.15234375 C-133.0253125 59.16234375 -133.3553125 58.17234375 -133.6953125 57.15234375 Z M-95.6953125 68.15234375 C-94.6953125 70.15234375 -94.6953125 70.15234375 -94.6953125 70.15234375 Z M-94.6953125 70.15234375 C-93.6953125 72.15234375 -93.6953125 72.15234375 -93.6953125 72.15234375 Z M-93.6953125 72.15234375 C-92.6953125 74.15234375 -92.6953125 74.15234375 -92.6953125 74.15234375 Z M-143.6953125 77.15234375 C-143.6953125 81.44234375 -143.6953125 85.73234375 -143.6953125 90.15234375 C-140.89140263 87.34843388 -141.03010459 85.03593204 -140.6953125 81.15234375 C-141.04190545 78.8307631 -141.04190545 78.8307631 -141.6953125 77.15234375 C-142.3553125 77.15234375 -143.0153125 77.15234375 -143.6953125 77.15234375 Z M-126.6953125 78.15234375 C-128.45593414 81.4779624 -128.80315478 82.7440837 -127.8203125 86.46484375 C-127.4490625 87.35171875 -127.0778125 88.23859375 -126.6953125 89.15234375 C-126.3653125 89.15234375 -126.0353125 89.15234375 -125.6953125 89.15234375 C-125.6953125 85.52234375 -125.6953125 81.89234375 -125.6953125 78.15234375 C-126.0253125 78.15234375 -126.3553125 78.15234375 -126.6953125 78.15234375 Z M-14.6953125 84.15234375 C-14.6953125 86.79234375 -14.6953125 89.43234375 -14.6953125 92.15234375 C-14.3653125 92.15234375 -14.0353125 92.15234375 -13.6953125 92.15234375 C-13.6953125 89.51234375 -13.6953125 86.87234375 -13.6953125 84.15234375 C-14.0253125 84.15234375 -14.3553125 84.15234375 -14.6953125 84.15234375 Z M-125.6953125 90.15234375 C-127.01760439 92.79692754 -126.79208444 94.82995676 -126.7578125 97.77734375 C-126.74878906 98.78023437 -126.73976563 99.783125 -126.73046875 100.81640625 C-126.71886719 101.58726562 -126.70726563 102.358125 -126.6953125 103.15234375 C-124.2203125 103.64734375 -124.2203125 103.64734375 -121.6953125 104.15234375 C-121.82808594 103.56066406 -121.96085937 102.96898437 -122.09765625 102.359375 C-123.00536428 98.2978785 -123.9044238 94.23860204 -124.6953125 90.15234375 C-125.0253125 90.15234375 -125.3553125 90.15234375 -125.6953125 90.15234375 Z M-15.6953125 93.15234375 C-16.0253125 94.08046875 -16.3553125 95.00859375 -16.6953125 95.96484375 C-18.18670441 99.48481139 -20.20227371 102.29811953 -22.5078125 105.33984375 C-27.91703872 112.58541245 -32.52809589 120.06952021 -33.6953125 129.15234375 C-23.91398606 121.56682528 -17.34485764 111.79798903 -15.234375 99.45703125 C-14.99135992 97.3618472 -14.83332628 95.25705388 -14.6953125 93.15234375 C-15.0253125 93.15234375 -15.3553125 93.15234375 -15.6953125 93.15234375 Z M-98.6953125 97.15234375 C-98.3653125 98.80234375 -98.0353125 100.45234375 -97.6953125 102.15234375 C-97.0353125 102.15234375 -96.3753125 102.15234375 -95.6953125 102.15234375 C-96.04317958 100.1769763 -96.04317958 100.1769763 -96.6953125 98.15234375 C-97.3553125 97.82234375 -98.0153125 97.49234375 -98.6953125 97.15234375 Z M-88.6953125 93.15234375 C-88.6953125 93.81234375 -88.6953125 94.47234375 -88.6953125 95.15234375 C-90.3453125 95.15234375 -91.9953125 95.15234375 -93.6953125 95.15234375 C-93.6953125 98.35126656 -93.49422409 100.4064253 -92.6953125 103.40234375 C-92.3653125 104.63984375 -92.0353125 105.87734375 -91.6953125 107.15234375 C-88.2303125 106.65734375 -88.2303125 106.65734375 -84.6953125 106.15234375 C-85.14695382 111.00748796 -86.17581684 113.72796959 -89.6953125 117.15234375 C-92.8203125 118.52734375 -92.8203125 118.52734375 -95.6953125 119.15234375 C-96.3553125 118.82234375 -97.0153125 118.49234375 -97.6953125 118.15234375 C-97.5303125 117.26546875 -97.3653125 116.37859375 -97.1953125 115.46484375 C-97.30878509 112.12246621 -97.30878509 112.12246621 -99.4765625 110.78125 C-100.94250212 109.95278764 -102.43298849 109.16618988 -103.9453125 108.42578125 C-104.5228125 108.00554687 -105.1003125 107.5853125 -105.6953125 107.15234375 C-105.6953125 103.15234375 -105.6953125 103.15234375 -103.6953125 100.90234375 C-103.0353125 100.32484375 -102.3753125 99.74734375 -101.6953125 99.15234375 C-102.6853125 98.82234375 -103.6753125 98.49234375 -104.6953125 98.15234375 C-108.5618409 101.37445075 -109.57590268 104.30156787 -110.6953125 109.15234375 C-112.0153125 108.82234375 -113.3353125 108.49234375 -114.6953125 108.15234375 C-111.91416997 117.05199986 -103.97426205 125.85095734 -96.171875 130.73046875 C-91.45468791 133.19530525 -88.09342795 134.25265784 -82.6953125 135.15234375 C-82.6953125 119.97234375 -82.6953125 104.79234375 -82.6953125 89.15234375 C-85.01110755 89.15234375 -87.06129465 91.72781537 -88.6953125 93.15234375 Z M-119.6953125 109.15234375 C-120.16053543 113.94542717 -120.16053543 113.94542717 -118.1953125 118.08984375 C-117.7003125 118.44046875 -117.2053125 118.79109375 -116.6953125 119.15234375 C-116.0353125 118.16234375 -115.3753125 117.17234375 -114.6953125 116.15234375 C-116.6753125 112.68734375 -116.6753125 112.68734375 -118.6953125 109.15234375 C-119.0253125 109.15234375 -119.3553125 109.15234375 -119.6953125 109.15234375 Z M-31.6953125 109.15234375 C-41.70589901 116.96060123 -45.49596065 124.67005736 -47.6953125 137.15234375 C-45.18062118 136.8125206 -43.20576602 136.48978298 -41.0703125 135.078125 C-38.94935334 132.10757708 -37.88527902 128.75789862 -36.6953125 125.33984375 C-35.28256296 121.34809049 -33.89331223 117.53552626 -31.9453125 113.765625 C-31.5328125 112.90324219 -31.1203125 112.04085937 -30.6953125 111.15234375 C-31.0253125 110.49234375 -31.3553125 109.83234375 -31.6953125 109.15234375 Z M-92.6953125 112.15234375 C-93.3553125 113.47234375 -94.0153125 114.79234375 -94.6953125 116.15234375 C-93.3753125 114.83234375 -92.0553125 113.51234375 -90.6953125 112.15234375 C-91.3553125 112.15234375 -92.0153125 112.15234375 -92.6953125 112.15234375 Z M-113.6953125 121.15234375 C-112.7053125 122.63734375 -112.7053125 122.63734375 -111.6953125 124.15234375 C-111.0353125 123.82234375 -110.3753125 123.49234375 -109.6953125 123.15234375 C-111.0153125 122.49234375 -112.3353125 121.83234375 -113.6953125 121.15234375 Z M-116.6953125 125.15234375 C-116.6953125 125.81234375 -116.6953125 126.47234375 -116.6953125 127.15234375 C-116.0353125 126.82234375 -115.3753125 126.49234375 -114.6953125 126.15234375 C-115.3553125 125.82234375 -116.0153125 125.49234375 -116.6953125 125.15234375 Z M-114.6953125 127.15234375 C-113.72083513 130.66046227 -112.77374219 132.08639151 -109.9453125 134.46484375 C-106.48343982 136.26235457 -104.52959278 136.5175133 -100.6953125 136.15234375 C-101.2728125 135.86359375 -101.8503125 135.57484375 -102.4453125 135.27734375 C-103.1878125 134.90609375 -103.9303125 134.53484375 -104.6953125 134.15234375 C-105.3346875 133.88421875 -105.9740625 133.61609375 -106.6328125 133.33984375 C-109.44963066 131.71803936 -111.43846262 129.47018957 -113.6953125 127.15234375 C-114.0253125 127.15234375 -114.3553125 127.15234375 -114.6953125 127.15234375 Z M-62.6953125 138.15234375 C-62.6953125 138.81234375 -62.6953125 139.47234375 -62.6953125 140.15234375 C-60.34360119 139.55372633 -58.0093747 138.88310023 -55.6953125 138.15234375 C-55.3653125 137.49234375 -55.0353125 136.83234375 -54.6953125 136.15234375 C-58.46219114 136.15234375 -59.60721555 136.38771692 -62.6953125 138.15234375 Z M-73.6953125 138.15234375 C-73.6953125 138.81234375 -73.6953125 139.47234375 -73.6953125 140.15234375 C-72.3753125 139.49234375 -71.0553125 138.83234375 -69.6953125 138.15234375 C-71.0153125 138.15234375 -72.3353125 138.15234375 -73.6953125 138.15234375 Z M-97.6953125 143.15234375 C-97.6953125 143.81234375 -97.6953125 144.47234375 -97.6953125 145.15234375 C-97.0353125 145.15234375 -96.3753125 145.15234375 -95.6953125 145.15234375 C-95.6953125 144.49234375 -95.6953125 143.83234375 -95.6953125 143.15234375 C-96.3553125 143.15234375 -97.0153125 143.15234375 -97.6953125 143.15234375 Z M-65.6953125 147.15234375 C-66.0253125 147.81234375 -66.3553125 148.47234375 -66.6953125 149.15234375 C-66.2209375 149.70921875 -65.7465625 150.26609375 -65.2578125 150.83984375 C-63.57135254 153.33580449 -63.10578143 155.19696745 -62.6953125 158.15234375 C-62.3653125 156.83234375 -62.0353125 155.51234375 -61.6953125 154.15234375 C-61.0353125 154.15234375 -60.3753125 154.15234375 -59.6953125 154.15234375 C-59.6953125 155.80234375 -59.6953125 157.45234375 -59.6953125 159.15234375 C-59.0353125 158.82234375 -58.3753125 158.49234375 -57.6953125 158.15234375 C-57.6953125 157.16234375 -57.6953125 156.17234375 -57.6953125 155.15234375 C-55.6953125 156.15234375 -55.6953125 156.15234375 -53.6953125 159.15234375 C-53.3653125 158.82234375 -53.0353125 158.49234375 -52.6953125 158.15234375 C-52.6337183 154.74097899 -52.6337183 154.74097899 -53.6953125 151.15234375 C-56.88239517 148.26173388 -58.76811934 147.22102472 -63.0703125 146.90234375 C-64.3696875 147.02609375 -64.3696875 147.02609375 -65.6953125 147.15234375 Z M-95.6953125 150.15234375 C-98.19037212 152.64740337 -98.05479626 153.82563263 -98.3203125 157.27734375 C-98.39507812 158.18742188 -98.46984375 159.0975 -98.546875 160.03515625 C-98.59585938 160.73382813 -98.64484375 161.4325 -98.6953125 162.15234375 C-97.7053125 162.48234375 -96.7153125 162.81234375 -95.6953125 163.15234375 C-95.0353125 162.82234375 -94.3753125 162.49234375 -93.6953125 162.15234375 C-93.00304218 159.34253702 -93.00304218 159.34253702 -92.5703125 156.08984375 C-92.40273437 154.98511719 -92.23515625 153.88039062 -92.0625 152.7421875 C-91.94132812 151.88753906 -91.82015625 151.03289062 -91.6953125 150.15234375 C-93.0153125 150.15234375 -94.3353125 150.15234375 -95.6953125 150.15234375 Z M-73.6953125 150.15234375 C-75.01817496 155.11307797 -74.78424447 160.06345887 -74.6953125 165.15234375 C-71.62431566 164.81112188 -69.861021 164.270084 -67.3203125 162.46484375 C-65.42720076 160.21354369 -65.42720076 160.21354369 -65.5703125 157.15234375 C-67.05223056 153.20056227 -69.05014094 152.12681168 -72.6953125 150.15234375 C-73.0253125 150.15234375 -73.3553125 150.15234375 -73.6953125 150.15234375 Z M-87.8828125 152.15234375 C-90.03428353 154.14157327 -90.03428353 154.14157327 -90.1328125 157.65234375 C-89.96634906 161.03967744 -89.96634906 161.03967744 -88.4453125 163.08984375 C-86.46666956 164.49832917 -86.46666956 164.49832917 -82.6953125 164.15234375 C-82.6953125 160.19234375 -82.6953125 156.23234375 -82.6953125 152.15234375 C-85.59627844 150.80645209 -85.59627844 150.80645209 -87.8828125 152.15234375 Z M-63.6953125 175.15234375 C-63.6953125 177.13234375 -63.6953125 179.11234375 -63.6953125 181.15234375 C-63.3653125 181.15234375 -63.0353125 181.15234375 -62.6953125 181.15234375 C-62.6953125 179.17234375 -62.6953125 177.19234375 -62.6953125 175.15234375 C-63.0253125 175.15234375 -63.3553125 175.15234375 -63.6953125 175.15234375 Z " fill="#00923F" transform="translate(227.6953125,66.84765625)"/>
<path d="M0 0 C0.74883453 -0.00570007 1.49766907 -0.01140015 2.26919556 -0.01727295 C3.85083631 -0.02667245 5.43249621 -0.0332367 7.01416016 -0.03710938 C9.37309514 -0.0467083 11.73111653 -0.07773414 14.08984375 -0.109375 C52.62971345 -0.37853177 87.29638626 15.98182132 115.0390625 42.203125 C116.23789062 43.30527344 116.23789062 43.30527344 117.4609375 44.4296875 C141.39608564 67.22143685 158.73092637 101.89546267 160.21606445 135.16870117 C160.24225184 136.61107228 160.26240187 138.05356232 160.27734375 139.49609375 C160.2871376 140.27586075 160.29693146 141.05562775 160.30702209 141.85902405 C160.62737425 173.9506549 160.62737425 173.9506549 156.0390625 189.203125 C155.82475586 189.95851562 155.61044922 190.71390625 155.38964844 191.4921875 C152.36332476 202.02925626 148.21969304 211.79243779 143.00195312 221.42480469 C142.12643354 223.04176328 141.27658668 224.67255656 140.4296875 226.3046875 C122.54617902 259.15014119 89.58387022 283.74232189 54.2578125 294.73828125 C49.87810406 296.02489112 45.49892241 297.22667234 41.0390625 298.203125 C40.19649902 298.38858887 39.35393555 298.57405273 38.48583984 298.76513672 C29.20072415 300.56375685 19.96068805 300.60092929 10.5390625 300.578125 C9.69557251 300.57758118 8.85208252 300.57703735 7.98303223 300.57647705 C-4.73256547 300.53875695 -16.71325614 299.88752365 -28.9609375 296.203125 C-30.09402344 295.88166504 -30.09402344 295.88166504 -31.25 295.55371094 C-42.45755717 292.33481806 -52.75995216 287.81870159 -62.9609375 282.203125 C-63.59628418 281.85910645 -64.23163086 281.51508789 -64.88623047 281.16064453 C-74.97074925 275.64386494 -83.5590781 269.02421071 -91.9609375 261.203125 C-92.51523438 260.69265625 -93.06953125 260.1821875 -93.640625 259.65625 C-119.6757848 235.45455215 -138.44697081 200.41615978 -140.13793945 164.43701172 C-140.16409669 163.08571076 -140.18426049 161.73428383 -140.19921875 160.3828125 C-140.21390953 159.28398743 -140.21390953 159.28398743 -140.22889709 158.16296387 C-140.39888031 142.15005849 -140.3638702 126.73401776 -135.9609375 111.203125 C-135.74663086 110.4292041 -135.53232422 109.6552832 -135.31152344 108.85791016 C-128.70099243 85.66331775 -116.3267831 64.81584076 -99.9609375 47.203125 C-99.50074219 46.70441895 -99.04054687 46.20571289 -98.56640625 45.69189453 C-73.93069129 19.27239761 -36.54576972 0.22251533 0 0 Z M-27.9609375 8.203125 C-28.73775879 8.41743164 -29.51458008 8.63173828 -30.31494141 8.85253906 C-50.92160462 14.72793961 -69.71953503 25.25954153 -85.9609375 39.203125 C-86.86585937 39.97398438 -87.77078125 40.74484375 -88.703125 41.5390625 C-95.20576018 47.24913273 -100.73385594 53.31535607 -105.9609375 60.203125 C-106.36699219 60.72890137 -106.77304688 61.25467773 -107.19140625 61.79638672 C-114.04020473 70.7129955 -119.33835429 79.96467623 -123.9609375 90.203125 C-124.50621094 91.39421875 -125.05148438 92.5853125 -125.61328125 93.8125 C-139.90590316 127.12558312 -140.80711883 168.89741525 -127.39501953 202.66235352 C-126.61037852 204.52250651 -125.79477667 206.36452652 -124.9609375 208.203125 C-124.66848145 208.85539063 -124.37602539 209.50765625 -124.07470703 210.1796875 C-107.86633802 245.73685064 -79.0193877 273.40778011 -42.5234375 287.515625 C-6.06354917 301.04577703 34.51323723 300.49737658 70.15625 284.390625 C84.07611453 277.80490077 96.92164213 269.89836485 108.0390625 259.203125 C109.38770149 258.05079074 110.74165908 256.90464391 112.1015625 255.765625 C140.21640667 230.96171058 154.39327155 193.31380651 156.91333008 156.68847656 C158.86356973 118.1381083 144.651644 80.14215521 119.05712891 51.44165039 C100.01433818 30.69757747 75.15586295 15.68400959 48.0390625 8.203125 C47.28157715 7.99139648 46.5240918 7.77966797 45.74365234 7.56152344 C22.60661965 1.41049431 -4.94433488 1.76963939 -27.9609375 8.203125 Z " fill="#00923F" transform="translate(139.9609375,-0.203125)"/>
<path d="M0 0 C0 1.32 0 2.64 0 4 C-1.41772461 5.33691406 -1.41772461 5.33691406 -3.40234375 6.515625 C-4.12365479 6.95777344 -4.84496582 7.39992188 -5.58813477 7.85546875 C-6.36342529 8.31566406 -7.13871582 8.77585937 -7.9375 9.25 C-25.20933165 19.99612568 -37.08499137 33.89314651 -42 54 C-46.9469228 77.38545322 -38.3978528 100.57268046 -26.19970703 120.2109375 C-22.83706168 125.22548067 -18.64682955 129.53550759 -14.2421875 133.63671875 C-13 135 -13 135 -13 137 C-12.42894531 137.26167969 -11.85789063 137.52335938 -11.26953125 137.79296875 C-8.83337535 139.08861793 -6.83993338 140.58825941 -4.6875 142.3125 C-1.83592348 144.58337468 1.03288472 146.72409872 4.0625 148.75 C5.5165625 149.86375 5.5165625 149.86375 7 151 C7 151.99 7 152.98 7 154 C-6.59664164 155.43964441 -21.06682461 149.16453601 -31.55126953 140.75585938 C-35.20301351 137.66809567 -38.61691734 134.37827715 -42 131 C-43.11375 129.90365234 -43.11375 129.90365234 -44.25 128.78515625 C-57.97428615 114.39073894 -65.81761598 93.67057053 -67 74 C-67.05285156 73.28199219 -67.10570312 72.56398438 -67.16015625 71.82421875 C-67.86532851 53.58171911 -61.70175067 35.48407987 -49.9375 21.55859375 C-37.1325338 8.0447812 -18.72977946 -0.69369554 0 0 Z M-19.5 6.3125 C-20.47646484 6.63250977 -20.47646484 6.63250977 -21.47265625 6.95898438 C-25.29023079 8.2507899 -28.63064143 9.79047833 -32 12 C-29.525 14.97 -29.525 14.97 -27 18 C-23.54105929 16.4210953 -20.62198902 14.37400025 -17.5625 12.125 C-16.17224609 11.10792969 -16.17224609 11.10792969 -14.75390625 10.0703125 C-12.12703628 8.09550245 -9.55428037 6.06753002 -7 4 C-11.51348341 3.6788483 -15.28960069 4.85761945 -19.5 6.3125 Z M-36 14 C-43.37994246 19.35506029 -51.11330392 25.49785233 -55 34 C-53.73809862 37.78570414 -52.45144185 38.21831571 -49.0625 40.1875 C-47.71865234 40.98220703 -47.71865234 40.98220703 -46.34765625 41.79296875 C-44.14351611 43.1524159 -44.14351611 43.1524159 -42 43 C-41.64808594 42.23816406 -41.29617187 41.47632813 -40.93359375 40.69140625 C-37.62655668 33.77512245 -33.97753668 27.83167019 -29 22 C-30.68152073 18.25979502 -32.69039473 16.43865652 -36 14 Z M-57 39 C-62.66022405 50.37540174 -63.22832592 60.44207445 -63 73 C-57.72 73.33 -52.44 73.66 -47 74 C-46.86722656 72.56527344 -46.73445313 71.13054687 -46.59765625 69.65234375 C-46.41935985 67.7473875 -46.24096947 65.84244004 -46.0625 63.9375 C-45.97548828 62.99455078 -45.88847656 62.05160156 -45.79882812 61.08007812 C-45.32357317 56.02829393 -44.77210932 51.01523261 -44 46 C-45.97762655 44.83072457 -47.95714258 43.66464427 -49.9375 42.5 C-51.03964844 41.8503125 -52.14179687 41.200625 -53.27734375 40.53125 C-55.6246493 38.91829969 -55.6246493 38.91829969 -57 39 Z M-63 77 C-62.8311529 83.38549022 -61.52242729 89.18941456 -59.625 95.25 C-59.31139526 96.25933594 -59.31139526 96.25933594 -58.99145508 97.2890625 C-57.63504142 101.47888508 -55.99602323 105.00795354 -54 109 C-49.05 107.02 -44.1 105.04 -39 103 C-39.78375 100.73125 -40.5675 98.4625 -41.375 96.125 C-43.40186258 90.15119205 -45.01558767 84.24440658 -46 78 C-49.60993172 76.86519473 -52.9842327 76.89984233 -56.75 76.9375 C-58.50570312 76.95103516 -58.50570312 76.95103516 -60.296875 76.96484375 C-61.18890625 76.97644531 -62.0809375 76.98804688 -63 77 Z M-46.75 109.5 C-47.73484375 109.9640625 -48.7196875 110.428125 -49.734375 110.90625 C-50.48203125 111.2671875 -51.2296875 111.628125 -52 112 C-49.28928728 117.9306201 -45.76605873 122.67769336 -41.375 127.4375 C-40.65606567 128.21722168 -40.65606567 128.21722168 -39.92260742 129.01269531 C-37.72061518 131.34724511 -35.68318162 133.21121225 -33 135 C-30.36 132.69 -27.72 130.38 -25 128 C-26.82049454 124.35901091 -28.84484201 120.94356767 -31 117.5 C-33.14758944 114.06852557 -35.27351964 110.66877076 -37 107 C-41.19565574 107 -43.03086031 107.7289811 -46.75 109.5 Z M-23 130 C-26.465 132.97 -26.465 132.97 -30 136 C-28.67085119 139.98744642 -26.23838654 140.98605526 -22.75 142.9375 C-22.12826904 143.28868896 -21.50653809 143.63987793 -20.8659668 144.00170898 C-14.91401838 147.24501328 -8.68680648 149.74560647 -2 151 C-1.01 150.67 -0.02 150.34 1 150 C0.40574219 149.61070312 -0.18851563 149.22140625 -0.80078125 148.8203125 C-8.93967314 143.32687692 -16.06474791 136.93525209 -23 130 Z " fill="#00923F" transform="translate(117,87)"/>
<path d="M0 0 C17.80289392 0.33023918 33.97233481 6.72049151 47.09765625 18.90234375 C61.62040825 34.91613805 66.91952344 53.46845906 66.3515625 74.734375 C65.1482528 98.47160664 53.28335123 120.43999652 36.3125 136.6875 C27.52354108 144.30277807 17.12099142 149.66370257 6 153 C5.34773437 153.1959375 4.69546875 153.391875 4.0234375 153.59375 C1.55984297 154.08837129 -0.73925029 154.09553618 -3.25 154.0625 C-4.14203125 154.05347656 -5.0340625 154.04445312 -5.953125 154.03515625 C-6.96632812 154.01775391 -6.96632812 154.01775391 -8 154 C-8 153.01 -8 152.02 -8 151 C-5.90819176 149.33017037 -3.84803453 147.84990065 -1.625 146.375 C17.21675024 133.35961453 30.31518044 116.60500873 38 95 C38.39316406 93.91976562 38.78632813 92.83953125 39.19140625 91.7265625 C44.78381452 74.07247926 43.59619302 54.85712298 36.0625 38.0625 C27.8826808 22.42918804 14.11522732 12.41439897 -1 4 C-0.67 2.68 -0.34 1.36 0 0 Z M6 4 C8.9280304 6.22476213 11.91349953 8.3453949 14.9375 10.4375 C18.39363697 12.84709623 21.76094417 15.3007868 25 18 C28.40062014 16.59284684 29.89229698 14.97131772 32 12 C23.85468842 7.52979646 15.46725193 3.67705963 6 4 Z M35 14 C32.69 16.31 30.38 18.62 28 21 C28.825 22.03125 29.65 23.0625 30.5 24.125 C34.95813517 30.0336289 38.42352767 36.53693326 42 43 C43.60781893 42.2368139 45.21113138 41.46412942 46.8125 40.6875 C47.70582031 40.25824219 48.59914063 39.82898438 49.51953125 39.38671875 C51.78931933 38.11778211 53.29248171 36.93443102 55 35 C50.04451456 26.66028061 43.80552968 18.40276484 35 14 Z M49.4375 42.375 C48.44621094 43.00148438 47.45492187 43.62796875 46.43359375 44.2734375 C43.91845222 45.77083742 43.91845222 45.77083742 43 48 C43.42013263 50.32395041 43.91158946 52.63518051 44.4375 54.9375 C45.84931745 61.41465251 46.27356328 67.34329361 46 74 C54.415 73.505 54.415 73.505 63 73 C63.44221655 61.06015314 61.9893479 49.91507202 57 39 C53.89772648 39 52.02057057 40.72479846 49.4375 42.375 Z M46 78 C45.0197441 81.41635512 44.04098554 84.83313745 43.0625 88.25 C42.78470703 89.21808594 42.50691406 90.18617188 42.22070312 91.18359375 C41.95322266 92.11816406 41.68574219 93.05273438 41.41015625 94.015625 C41.16402588 94.87446289 40.91789551 95.73330078 40.66430664 96.61816406 C40.07304813 98.73808984 39.52151657 100.86199846 39 103 C41.12282669 104.00460531 43.24833021 105.00355602 45.375 106 C46.55835938 106.556875 47.74171875 107.11375 48.9609375 107.6875 C51.75428575 109.13216041 51.75428575 109.13216041 54 109 C58.33981083 98.43838917 61.28805383 88.29283791 63 77 C60.91673869 76.97290556 58.83337559 76.95356127 56.75 76.9375 C55.58984375 76.92589844 54.4296875 76.91429687 53.234375 76.90234375 C50.55737061 76.98317118 48.54404342 77.30111355 46 78 Z M37 106 C36.39671875 107.08539063 35.7934375 108.17078125 35.171875 109.2890625 C34.36471223 110.73444699 33.55741332 112.17975546 32.75 113.625 C32.35425781 114.33785156 31.95851563 115.05070312 31.55078125 115.78515625 C29.19854791 119.9883273 26.72947722 124.03098955 24 128 C26.64 130.31 29.28 132.62 32 135 C41.32154889 129.83928089 46.5950303 120.89567929 52 112 C44.575 109.03 44.575 109.03 37 106 Z M22 130 C21.18917969 130.85722656 20.37835938 131.71445313 19.54296875 132.59765625 C12.8525737 139.54799077 6.50629615 145.31216144 -2 150 C4.67647897 152.22549299 13.35872221 147.47472105 19.4375 144.5 C23.13126546 142.54164148 26.6741006 140.53818638 30 138 C30 137.34 30 136.68 30 136 C28.21276059 134.41544134 28.21276059 134.41544134 26 132.875 C24.88625 132.06675781 24.88625 132.06675781 23.75 131.2421875 C23.1725 130.83226562 22.595 130.42234375 22 130 Z " fill="#00923F" transform="translate(185,87)"/>
<path d="M0 0 C0 1.65 0 3.3 0 5 C-1.98 5.99 -1.98 5.99 -4 7 C-2.576875 7.0928125 -2.576875 7.0928125 -1.125 7.1875 C2 8 2 8 3.375 10.25 C4 13 4 13 3.875 15.5625 C3.73650326 18.18314627 3.73650326 18.18314627 6 20 C8.55488699 22.55488699 8 23.53111409 8 27 C8.639375 27.61875 9.27875 28.2375 9.9375 28.875 C12 31 12 31 12.375 34.5625 C12.58125 35.696875 12.7875 36.83125 13 38 C13.99 38.495 14.98 38.99 16 39.5 C16.99 39.995 17.98 40.49 19 41 C19.875 44.6875 19.875 44.6875 20 48 C20.99 47.67 21.98 47.34 23 47 C27.98239637 52.22544009 27.98239637 52.22544009 28.0625 55.75 C26.75107758 58.52712983 25.6903395 58.69559297 23 60 C22.690625 60.845625 22.38125 61.69125 22.0625 62.5625 C21 65 21 65 18.75 66.1875 C14.99486098 65.93146779 13.63683398 64.31685738 11.0390625 61.73828125 C10 60 10 60 10.2734375 57.85546875 C11 56 11 56 12 55 C11.2575 55.0825 10.515 55.165 9.75 55.25 C7 55 7 55 4.625 53.4375 C3 51 3 51 3 47.4375 C4 44 4 44 6.0625 42.0625 C7.0215625 41.5365625 7.0215625 41.5365625 8 41 C7.01 41 6.02 41 5 41 C3.28288757 43.44496043 3.28288757 43.44496043 2 46 C0.515 45.505 0.515 45.505 -1 45 C-0.835 44.236875 -0.67 43.47375 -0.5 42.6875 C0.09145396 39.96403764 0.09145396 39.96403764 0 37 C-2.475 37.495 -2.475 37.495 -5 38 C-5 34 -5 34 -4 33 C-4.804375 32.608125 -5.60875 32.21625 -6.4375 31.8125 C-9 30 -9 30 -9.9375 27.5 C-10 25 -10 25 -8 22 C-9.32 22 -10.64 22 -12 22 C-12.33 20.68 -12.66 19.36 -13 18 C-12.34 17.67 -11.68 17.34 -11 17 C-11.99 17 -12.98 17 -14 17 C-14.31319144 15.60432165 -14.62551788 14.20844918 -14.9375 12.8125 C-15.11152344 12.03519531 -15.28554688 11.25789062 -15.46484375 10.45703125 C-16.00511333 7.97652348 -16.50894372 5.49067284 -17 3 C-14.54383175 2.30378686 -12.0855877 1.61775372 -9.625 0.9375 C-8.57699219 0.63875977 -8.57699219 0.63875977 -7.5078125 0.33398438 C-2.2265625 -1.11328125 -2.2265625 -1.11328125 0 0 Z M-5 24 C-5.33 24.99 -5.66 25.98 -6 27 C-3.525 27.495 -3.525 27.495 -1 28 C-1 29.32 -1 30.64 -1 32 C0.65 31.34 2.3 30.68 4 30 C4 29.34 4 28.68 4 28 C3.34 28 2.68 28 2 28 C2.66 26.35 3.32 24.7 4 23 C0.28390294 21.96775082 -1.78578255 21.70413039 -5 24 Z M7 32 C6.34 32.66 5.68 33.32 5 34 C5.99 34.99 6.98 35.98 8 37 C8.33 36.01 8.66 35.02 9 34 C8.34 33.34 7.68 32.68 7 32 Z M7 47 C7.33 48.32 7.66 49.64 8 51 C11.37462715 50.45276317 13.08235 49.9451 16 48 C15.67 46.35 15.34 44.7 15 43 C11.09161134 43 9.88405893 44.50567876 7 47 Z M21 53 C21 53.99 21 54.98 21 56 C21.99 56 22.98 56 24 56 C23.67 55.01 23.34 54.02 23 53 C22.34 53 21.68 53 21 53 Z M16 57 C16 58.32 16 59.64 16 61 C16.99 61 17.98 61 19 61 C18.67 59.68 18.34 58.36 18 57 C17.34 57 16.68 57 16 57 Z " fill="#00923F" transform="translate(33,178)"/>
<path d="M0 0 C1.32 0.33 2.64 0.66 4 1 C3.34 3.31 2.68 5.62 2 8 C2.99 8 3.98 8 5 8 C5.33 6.02 5.66 4.04 6 2 C7.32 2.33 8.64 2.66 10 3 C9.34 5.31 8.68 7.62 8 10 C8.99 9.67 9.98 9.34 11 9 C12.21869929 6.49552484 12.21869929 6.49552484 13 4 C14.32 4 15.64 4 17 4 C16.01 7.63 15.02 11.26 14 15 C12.68 15 11.36 15 10 15 C10.66 15.66 11.32 16.32 12 17 C11.53846154 23.46153846 11.53846154 23.46153846 9 26 C8.3574765 28.06874034 8.3574765 28.06874034 8 30 C7.360625 30.103125 6.72125 30.20625 6.0625 30.3125 C5.381875 30.539375 4.70125 30.76625 4 31 C3.67 31.99 3.34 32.98 3 34 C3.66 34.33 4.32 34.66 5 35 C4.34097701 38.57040303 2.83770842 41.17732255 0.9375 44.25 C0.38964844 45.14203125 -0.15820312 46.0340625 -0.72265625 46.953125 C-1.14417969 47.62859375 -1.56570313 48.3040625 -2 49 C-5.69876091 47.62712658 -8.9514476 45.93644547 -12.3125 43.875 C-13.19550781 43.33617187 -14.07851562 42.79734375 -14.98828125 42.2421875 C-15.65214844 41.83226562 -16.31601563 41.42234375 -17 41 C-15.61702141 37.42229452 -14.04383021 34.25154807 -12 31 C-10.68 31.33 -9.36 31.66 -8 32 C-9.875 36.75 -9.875 36.75 -11 39 C-10.34 39.33 -9.68 39.66 -9 40 C-8.34 38.35 -7.68 36.7 -7 35 C-5.68 35.33 -4.36 35.66 -3 36 C-3.350625 36.598125 -3.70125 37.19625 -4.0625 37.8125 C-5.33304698 40.10813214 -5.33304698 40.10813214 -4 43 C-3.01 41.02 -2.02 39.04 -1 37 C-3.97 34.03 -6.94 31.06 -10 28 C-9.34 26.68 -8.68 25.36 -8 24 C-4.37 24.33 -0.74 24.66 3 25 C3.33 24.01 3.66 23.02 4 22 C4.99 21.67 5.98 21.34 7 21 C7.33 20.01 7.66 19.02 8 18 C7.13375 18.845625 6.2675 19.69125 5.375 20.5625 C2.81320137 22.69935573 2.25950606 22.9950095 -1.25 23.0625 C-4 22 -4 22 -5.5625 20.375 C-6.10772029 17.41523272 -5.23193384 15.79509241 -3.9375 13.1484375 C-2.10351524 8.94555577 -1.13056955 4.43407772 0 0 Z M2 12 C2.33 13.32 2.66 14.64 3 16 C4.65 15.34 6.3 14.68 8 14 C8 13.67 8 13.34 8 13 C5.03 12.505 5.03 12.505 2 12 Z M-1 16 C-1 16.99 -1 17.98 -1 19 C-0.01 18.01 0.98 17.02 2 16 C1.01 16 0.02 16 -1 16 Z M-3 29 C-2.34 29.66 -1.68 30.32 -1 31 C-0.67 30.34 -0.34 29.68 0 29 C-0.99 29 -1.98 29 -3 29 Z " fill="#00923F" transform="translate(268,177)"/>
<path d="M0 0 C1.32 0 2.64 0 4 0 C6.475 5.445 6.475 5.445 9 11 C10.98 10.67 12.96 10.34 15 10 C15 11.32 15 12.64 15 14 C5.2282673 18.76877587 5.2282673 18.76877587 1 18 C0.34 17.34 -0.32 16.68 -1 16 C-1.99 16 -2.98 16 -4 16 C-4.33 17.65 -4.66 19.3 -5 21 C-9.84241633 22.33583899 -13.93437617 23.25328119 -19 23 C-19.33 22.34 -19.66 21.68 -20 21 C-20 21.99 -20 22.98 -20 24 C-21.32 24 -22.64 24 -24 24 C-24.33 21.69 -24.66 19.38 -25 17 C-25.99 17.66 -26.98 18.32 -28 19 C-28.2502157 22.08365871 -28.2502157 22.08365871 -28 25 C-29.32 25 -30.64 25 -32 25 C-32.66 19.39 -33.32 13.78 -34 8 C-32.68 8 -31.36 8 -30 8 C-29.67 9.98 -29.34 11.96 -29 14 C-28.01 13.34 -27.02 12.68 -26 12 C-25.74969023 9.41619823 -25.74969023 9.41619823 -26 7 C-24.43883181 6.66048381 -22.87598662 6.32867456 -21.3125 6 C-20.44238281 5.814375 -19.57226562 5.62875 -18.67578125 5.4375 C-16.06287036 5.01027953 -13.64186962 4.92383799 -11 5 C-11 6.32 -11 7.64 -11 9 C-11.804375 9.12375 -12.60875 9.2475 -13.4375 9.375 C-14.283125 9.58125 -15.12875 9.7875 -16 10 C-16.33 10.66 -16.66 11.32 -17 12 C-13.535 11.505 -13.535 11.505 -10 11 C-10 12.32 -10 13.64 -10 15 C-11.98 15.33 -13.96 15.66 -16 16 C-16 16.99 -16 17.98 -16 19 C-15.34 18.67 -14.68 18.34 -14 18 C-12.02 18 -10.04 18 -8 18 C-8 13.05 -8 8.1 -8 3 C-6.68 2.67 -5.36 2.34 -4 2 C-1.36 5.96 1.28 9.92 4 14 C3.34 12.246875 2.68 10.49375 2 8.6875 C0.81493079 5.53965992 0 3.37465686 0 0 Z M-22 9 C-21 13 -21 13 -21 13 Z M-4 10 C-4 10.66 -4 11.32 -4 12 C-3.34 11.67 -2.68 11.34 -2 11 C-2.66 10.67 -3.32 10.34 -4 10 Z " fill="#00923F" transform="translate(191,263)"/>
<path d="M0 0 C2.99415695 0.51485503 4.93657309 0.96132506 7.5625 2.5625 C10.10260929 4.33865668 10.10260929 4.33865668 14 4 C13.39174965 8.34464536 12.73832608 12.67551867 12 17 C13.98 17.66 15.96 18.32 18 19 C18.2475 18.13375 18.495 17.2675 18.75 16.375 C20.06778613 12.81697746 21.80186822 10.0773845 24 7 C25.32 7.33 26.64 7.66 28 8 C28.89604368 14.04829486 29.11269443 19.8894576 29 26 C27.68 25.67 26.36 25.34 25 25 C25 23.68 25 22.36 25 21 C23.68 21 22.36 21 21 21 C20.34 21.99 19.68 22.98 19 24 C17.01739401 23.57835981 15.03892755 23.13721222 13.0625 22.6875 C11.96035156 22.44386719 10.85820313 22.20023437 9.72265625 21.94921875 C8.82417969 21.63597656 7.92570312 21.32273437 7 21 C5.84058962 17.52176885 6.29179116 15.54104422 7 12 C6.401875 12.165 5.80375 12.33 5.1875 12.5 C3 13 3 13 0 13 C-0.66 14.32 -1.32 15.64 -2 17 C-2.99 16.67 -3.98 16.34 -5 16 C-4.39363767 10.23955788 -2.24341721 5.27985631 0 0 Z M3 5 C2.67 5.99 2.34 6.98 2 8 C3.32 8 4.64 8 6 8 C5.67 7.01 5.34 6.02 5 5 C4.34 5 3.68 5 3 5 Z M23 15 C23 15.66 23 16.32 23 17 C23.66 16.67 24.32 16.34 25 16 C24.34 15.67 23.68 15.34 23 15 Z " fill="#00923F" transform="translate(100,261)"/>
<path d="M0 0 C2.39489543 0.74324341 3.70777616 1.47057354 4.93359375 3.69140625 C5.67219923 5.44073501 6.34049685 7.21934149 7 9 C7.5775 8.34 8.155 7.68 8.75 7 C11 5 11 5 15 5 C14.46930939 8.82097239 13.50298434 11.06171403 11 14 C11.63808594 14.17015625 12.27617187 14.3403125 12.93359375 14.515625 C13.75988281 14.75796875 14.58617187 15.0003125 15.4375 15.25 C16.67306641 15.59804687 16.67306641 15.59804687 17.93359375 15.953125 C20 17 20 17 20.78515625 19.109375 C20.85605469 19.73328125 20.92695313 20.3571875 21 21 C17.30962722 22.37095624 15.29116165 21.60010967 11.75 20.0625 C10.85796875 19.68222656 9.9659375 19.30195313 9.046875 18.91015625 C8.37140625 18.60980469 7.6959375 18.30945313 7 18 C7.268125 19.2375 7.53625 20.475 7.8125 21.75 C8.09375 23.94921875 8.09375 23.94921875 8 26 C5.8125 28.5625 5.8125 28.5625 3 30 C0.6875 29.75 0.6875 29.75 -1 29 C-0.34 27.35 0.32 25.7 1 24 C0.360625 23.773125 -0.27875 23.54625 -0.9375 23.3125 C-3 22 -3 22 -4 19.6875 C-4 15.96671471 -2.57586787 14.57586787 0 12 C0.66 12 1.32 12 2 12 C1.484375 10.948125 0.96875 9.89625 0.4375 8.8125 C-0.99688183 5.51476233 -1.16452107 3.4935632 0 0 Z M1 18 C2 20 2 20 2 20 Z " fill="#00923F" transform="translate(161,164)"/>
<path d="M0 0 C3.82990706 0.64743667 6.5283898 2.45311237 9.75 4.5625 C11.22726563 5.52349609 11.22726563 5.52349609 12.734375 6.50390625 C13.48203125 6.99761719 14.2296875 7.49132812 15 8 C14.34 9.32 13.68 10.64 13 12 C11.02 12 9.04 12 7 12 C8.32 12.99 9.64 13.98 11 15 C9.125 19.75 9.125 19.75 8 22 C6.35 22 4.7 22 3 22 C3 23.32 3 24.64 3 26 C3.66 26.33 4.32 26.66 5 27 C4.67 28.32 4.34 29.64 4 31 C0.28954753 29.42219077 -2.29906384 27.09296752 -5.25 24.375 C-6.14203125 23.55773437 -7.0340625 22.74046875 -7.953125 21.8984375 C-8.62859375 21.27195312 -9.3040625 20.64546875 -10 20 C-9.67 18.68 -9.34 17.36 -9 16 C-4.05 16.33 0.9 16.66 6 17 C2.37 14.69 -1.26 12.38 -5 10 C-4.67 8.68 -4.34 7.36 -4 6 C-1.36 6 1.28 6 4 6 C2.35 5.01 0.7 4.02 -1 3 C-0.67 2.01 -0.34 1.02 0 0 Z " fill="#00923F" transform="translate(35,73)"/>
<path d="M0 0 C2 0 2 0 3.625 1.375 C5 3 5 3 5 5 C5.99 5.33 6.98 5.66 8 6 C8 6.99 8 7.98 8 9 C8.78375 9.12375 9.5675 9.2475 10.375 9.375 C13 10 13 10 15 12 C15.125 14.625 15.125 14.625 15 17 C14.01 17.33 13.02 17.66 12 18 C11.32060826 19.99571323 10.65438441 21.99594773 10 24 C7 26 7 26 4.4375 25.75 C2 25 2 25 0 23 C-0.125 19.875 -0.125 19.875 0 17 C1.32 16.67 2.64 16.34 4 16 C4.33 17.65 4.66 19.3 5 21 C6.35026777 18.87060172 6.35026777 18.87060172 5.0625 15.875 C4.711875 14.92625 4.36125 13.9775 4 13 C3.4225 13.226875 2.845 13.45375 2.25 13.6875 C0 14 0 14 -2.25 12.5625 C-2.8275 12.046875 -3.405 11.53125 -4 11 C-3.690625 11.5775 -3.38125 12.155 -3.0625 12.75 C-2.07416636 14.84294184 -1.4831387 16.74535275 -1 19 C-5 19 -5 19 -6.703125 17.7578125 C-7.21359375 17.21898437 -7.7240625 16.68015625 -8.25 16.125 C-8.77078125 15.59132812 -9.2915625 15.05765625 -9.828125 14.5078125 C-11 13 -11 13 -11 11 C-9.35546875 9.4140625 -9.35546875 9.4140625 -7.1875 7.625 C-4.93749143 5.76433718 -3.09649715 4.13127297 -1.36328125 1.7734375 C-0.68845703 0.89558594 -0.68845703 0.89558594 0 0 Z M0 6 C-0.33 6.66 -0.66 7.32 -1 8 C0.98 9.65 2.96 11.3 5 13 C5.33 12.01 5.66 11.02 6 10 C4.71034824 8.62437146 3.37310707 7.29233607 2 6 C1.34 6 0.68 6 0 6 Z M8 13 C8.66 14.32 9.32 15.64 10 17 C10.33 15.68 10.66 14.36 11 13 C10.01 13 9.02 13 8 13 Z " fill="#00923F" transform="translate(62,234)"/>
<path d="M0 0 C1.65 0.33 3.3 0.66 5 1 C6.3125 3.5625 6.3125 3.5625 7 6 C7.33 4.35 7.66 2.7 8 1 C12.95 1 17.9 1 23 1 C23 2.32 23 3.64 23 5 C21.68 5 20.36 5 19 5 C19 9.29 19 13.58 19 18 C17.68 18 16.36 18 15 18 C15 13.71 15 9.42 15 5 C14.01 5 13.02 5 12 5 C11.67 8.96 11.34 12.92 11 17 C9.68 17.33 8.36 17.66 7 18 C6.01 16.02 5.02 14.04 4 12 C3.67 13.65 3.34 15.3 3 17 C1.68 17 0.36 17 -1 17 C-0.67 11.39 -0.34 5.78 0 0 Z " fill="#00923F" transform="translate(131,270)"/>
<path d="M0 0 C1.67542976 0.28604898 3.34385343 0.61781233 5 1 C5 3.31 5 5.62 5 8 C5.94875 8.309375 6.8975 8.61875 7.875 8.9375 C11 10 11 10 13 11 C13 11.99 13 12.98 13 14 C11.35 14 9.7 14 8 14 C8.99 14.99 9.98 15.98 11 17 C10.67 17.99 10.34 18.98 10 20 C7.83125748 19.49396008 6.00032373 19.00016187 4 18 C3.67 19.98 3.34 21.96 3 24 C2.01 23.67 1.02 23.34 0 23 C0 21.35 0 19.7 0 18 C-1.32 19.32 -2.64 20.64 -4 22 C-4.99 21.67 -5.98 21.34 -7 21 C-5.125 16.25 -5.125 16.25 -4 14 C-5.98 14 -7.96 14 -10 14 C-9.67 13.01 -9.34 12.02 -9 11 C-8.21625 10.773125 -7.4325 10.54625 -6.625 10.3125 C-3.52004172 8.76002086 -3.38235826 8.0879225 -2.25 4.9375 C-2.02828125 4.22464844 -1.8065625 3.51179687 -1.578125 2.77734375 C-1 1 -1 1 0 0 Z " fill="#00923F" transform="translate(178,132)"/>
<path d="M0 0 C4.06124391 1.35374797 4.60315649 3.26258828 6.6875 6.9375 C7.31011719 8.01902344 7.93273437 9.10054688 8.57421875 10.21484375 C10 13 10 13 10 15 C8.68 15.33 7.36 15.66 6 16 C5.01 14.35 4.02 12.7 3 11 C2.34 11.66 1.68 12.32 1 13 C1.66 14.98 2.32 16.96 3 19 C1.68 19 0.36 19 -1 19 C-2.484375 17.3203125 -2.484375 17.3203125 -3.75 15.125 C-4.17796875 14.40570313 -4.6059375 13.68640625 -5.046875 12.9453125 C-6 11 -6 11 -6 9 C-6.99 9.66 -7.98 10.32 -9 11 C-8.6390625 11.69867188 -8.278125 12.39734375 -7.90625 13.1171875 C-7.4421875 14.02726562 -6.978125 14.93734375 -6.5 15.875 C-6.0359375 16.77992188 -5.571875 17.68484375 -5.09375 18.6171875 C-4 21 -4 21 -4 23 C-4.99 23.33 -5.98 23.66 -7 24 C-7.38671875 23.278125 -7.7734375 22.55625 -8.171875 21.8125 C-8.69265625 20.884375 -9.2134375 19.95625 -9.75 19 C-10.26046875 18.071875 -10.7709375 17.14375 -11.296875 16.1875 C-12.13992187 15.1046875 -12.13992187 15.1046875 -13 14 C-14.32 14 -15.64 14 -17 14 C-17.33 12.68 -17.66 11.36 -18 10 C-16.23628182 8.96692229 -14.46374967 7.94887951 -12.6875 6.9375 C-11.70136719 6.36902344 -10.71523437 5.80054688 -9.69921875 5.21484375 C-7 4 -7 4 -4 5 C-3.3125 7.0625 -3.3125 7.0625 -3 9 C-2.01 8.01 -1.02 7.02 0 6 C-0.66 4.35 -1.32 2.7 -2 1 C-1.34 0.67 -0.68 0.34 0 0 Z " fill="#00923F" transform="translate(216,251)"/>
<path d="M0 0 C2.4915904 3.7373856 2.45793285 5.57331583 2 10 C-0.13679285 13.38939556 -1.1774767 14.72582557 -5 16 C-9.19987818 16.38887761 -11.29607238 16.45908323 -14.875 14.125 C-17.67787453 11.32212547 -17.96829034 10.5813437 -18.1875 6.5625 C-18 3 -18 3 -16 0 C-13.06640625 -0.546875 -13.06640625 -0.546875 -9.5625 -0.75 C-8.40878906 -0.82734375 -7.25507813 -0.9046875 -6.06640625 -0.984375 C-3 -1 -3 -1 0 0 Z M-10.75 3.5 C-11.94882813 3.63921875 -11.94882813 3.63921875 -13.171875 3.78125 C-14.07679688 3.88953125 -14.07679688 3.88953125 -15 4 C-14.74438677 6.3431213 -14.40729228 8.67843403 -14 11 C-11.77109005 12.11445498 -10.46944894 12.16480286 -8 12.1875 C-6.948125 12.20876953 -6.948125 12.20876953 -5.875 12.23046875 C-3.75475062 12.16512323 -3.75475062 12.16512323 -2 10 C-1.83322718 6.41656024 -1.83322718 6.41656024 -2 3 C-5.01853795 3 -7.77081079 3.14950715 -10.75 3.5 Z " fill="#00923F" transform="translate(159,72)"/>
<path d="M0 0 C11.52164009 0.77904328 11.52164009 0.77904328 17 3 C16.875 4.875 16.875 4.875 16 7 C12.9375 8.25 12.9375 8.25 10 9 C12.97 9.495 12.97 9.495 16 10 C15.67 11.32 15.34 12.64 15 14 C9.147205 13.48517081 3.6702363 12.54642808 -2 11 C-1.67 9.68 -1.34 8.36 -1 7 C1.31 6.34 3.62 5.68 6 5 C4.02 4.34 2.04 3.68 0 3 C0 2.01 0 1.02 0 0 Z " fill="#00923F" transform="translate(15,119)"/>
<path d="M0 0 C1.32 0.33 2.64 0.66 4 1 C4.33 2.98 4.66 4.96 5 7 C5.66 6.01 6.32 5.02 7 4 C8.32 4 9.64 4 11 4 C10.33651854 7.76570556 8.64297659 10.53145505 6.625 13.75 C6.01914063 14.73484375 5.41328125 15.7196875 4.7890625 16.734375 C3.90347656 17.85585938 3.90347656 17.85585938 3 19 C2.01 19 1.02 19 0 19 C-0.66 16.69 -1.32 14.38 -2 12 C-2.99 13.32 -3.98 14.64 -5 16 C-5.66 15.67 -6.32 15.34 -7 15 C-6.42176904 10.93774452 -5.10882263 8.15237654 -2.9375 4.6875 C-2.38964844 3.80449219 -1.84179688 2.92148437 -1.27734375 2.01171875 C-0.64505859 1.01591797 -0.64505859 1.01591797 0 0 Z M-1 9 C0 11 0 11 0 11 Z " fill="#00923F" transform="translate(86,254)"/>
<path d="M0 0 C2.3125 1.3125 2.3125 1.3125 4.3125 3.3125 C4.4375 5.9375 4.4375 5.9375 4.3125 8.3125 C2.9925 7.9825 1.6725 7.6525 0.3125 7.3125 C0.3125 6.3225 0.3125 5.3325 0.3125 4.3125 C-2.21113988 4.93783375 -2.21113988 4.93783375 -4.6875 6.3125 C-5.58136164 8.86025306 -5.58136164 8.86025306 -5.6875 11.3125 C-4.3675 11.9725 -3.0475 12.6325 -1.6875 13.3125 C-1.6875 12.6525 -1.6875 11.9925 -1.6875 11.3125 C-2.3475 11.3125 -3.0075 11.3125 -3.6875 11.3125 C-3.3575 9.9925 -3.0275 8.6725 -2.6875 7.3125 C-0.7075 7.9725 1.2725 8.6325 3.3125 9.3125 C2.5625 15.0625 2.5625 15.0625 0.3125 17.3125 C-2.98271559 17.67067561 -5.03081109 17.64971863 -8 16.125 C-10.20780634 13.75365245 -10.61366619 12.56118753 -10.6875 9.3125 C-9.46485413 5.37286332 -8.44354555 2.96906587 -5.3125 0.25 C-2.6875 -0.6875 -2.6875 -0.6875 0 0 Z " fill="#00923F" transform="translate(199.6875,20.6875)"/>
<path d="M0 0 C3.5 0.625 3.5 0.625 6 2.75 C7.5 5.625 7.5 5.625 7.5 8.75 C6.34834332 12.06101296 5.6151646 13.0674177 2.5 14.625 C0 15.0625 0 15.0625 -2.5 14.625 C-5.08674284 12.68494287 -6.27405298 11.17574585 -7.5 8.1875 C-7.5 5.625 -7.5 5.625 -6 2.8125 C-3.5 0.625 -3.5 0.625 0 0 Z " fill="#00923F" transform="translate(20.5,148.375)"/>
<path d="M0 0 C0.99 0 1.98 0 3 0 C3.33 1.98 3.66 3.96 4 6 C4.99 6 5.98 6 7 6 C6.67 4.02 6.34 2.04 6 0 C7.32 0 8.64 0 10 0 C11.52106634 3.04213267 11.37429338 6.28047572 11.5625 9.625 C11.60568359 10.33140625 11.64886719 11.0378125 11.69335938 11.765625 C11.79944751 13.51018537 11.90022889 15.25506697 12 17 C10.35 17 8.7 17 7 17 C7 14.69 7 12.38 7 10 C5.68 10.33 4.36 10.66 3 11 C3.33 13.31 3.66 15.62 4 18 C2.68 18 1.36 18 0 18 C-1.11520565 14.4154104 -1.13337312 11.05109703 -1.125 7.3125 C-1.12757813 6.15363281 -1.13015625 4.99476562 -1.1328125 3.80078125 C-1 1 -1 1 0 0 Z " fill="#00923F" transform="translate(136,12)"/>
<path d="M0 0 C3.4375 1.0625 3.4375 1.0625 5.4375 3.125 C6.77395246 7.0508291 6.78192444 10.12759919 5.4375 14.0625 C3.1875 16.625 3.1875 16.625 0.4375 18.0625 C-2.44051881 17.99397574 -3.90923932 17.56621908 -6.18359375 15.8125 C-8.47988866 12.89822204 -8.03180712 10.03150299 -7.90625 6.453125 C-7.5625 4.0625 -7.5625 4.0625 -6 1.375 C-3.5625 0.0625 -3.5625 0.0625 0 0 Z M-2.5625 4.0625 C-3.76811184 5.04517859 -3.76811184 5.04517859 -3.66015625 6.91015625 C-3.64855469 7.64105469 -3.63695312 8.37195313 -3.625 9.125 C-3.604375 10.424375 -3.58375 11.72375 -3.5625 13.0625 C-2.5725 13.3925 -1.5825 13.7225 -0.5625 14.0625 C0.0975 13.7325 0.7575 13.4025 1.4375 13.0625 C1.4375 10.4225 1.4375 7.7825 1.4375 5.0625 C-0.50853274 4.47179986 -0.50853274 4.47179986 -2.5625 4.0625 Z " fill="#00923F" transform="translate(156.5625,11.9375)"/>
<path d="M0 0 C4.875 2.75 4.875 2.75 6 5 C7.32 5 8.64 5 10 5 C10 5.99 10 6.98 10 8 C10.99 8 11.98 8 13 8 C13.33 9.32 13.66 10.64 14 12 C13.01 12.33 12.02 12.66 11 13 C10.071875 14.051875 10.071875 14.051875 9.125 15.125 C7 17 7 17 4.375 16.875 C2 16 2 16 0 14 C-0.144375 13.195625 -0.28875 12.39125 -0.4375 11.5625 C-0.76537205 8.93607811 -0.76537205 8.93607811 -2.625 7.4375 C-3.07875 6.963125 -3.5325 6.48875 -4 6 C-3.875 3.9375 -3.875 3.9375 -3 2 C-2.01 1.34 -1.02 0.68 0 0 Z M4 11 C4 11.66 4 12.32 4 13 C4.99 13 5.98 13 7 13 C7 12.34 7 11.68 7 11 C6.01 11 5.02 11 4 11 Z " fill="#00923F" transform="translate(227,243)"/>
<path d="M0 0 C2.4375 1.5625 2.4375 1.5625 4 4 C4 7.81153499 3.80074051 10.05097421 1.3125 13 C-1.87167993 14.37694267 -3.70924801 13.980224 -7 13 C-8.875 11.8125 -8.875 11.8125 -10 10 C-10.54068562 6.36968224 -10.46379841 4.67785921 -8.375 1.625 C-5.28813568 -0.48706506 -3.6717087 -0.61195145 0 0 Z " fill="#00923F" transform="translate(283,149)"/>
<path d="M0 0 C2.87305972 1.40460697 4.74510999 2.74510999 7 5 C6.45652174 11.08695652 6.45652174 11.08695652 5 14 C-0.9129304 13.35729017 -6.34244531 11.80996216 -12 10 C-11.55090939 8.51800098 -11.09043436 7.03944764 -10.625 5.5625 C-10.36976562 4.73878906 -10.11453125 3.91507812 -9.8515625 3.06640625 C-8.07798688 -1.23736212 -4.08129172 -0.27669774 0 0 Z M-6 4 C-6.33 4.99 -6.66 5.98 -7 7 C-4.03 7.99 -1.06 8.98 2 10 C2.33 8.68 2.66 7.36 3 6 C-0.4352048 3.70986347 -1.985331 3.82157027 -6 4 Z " fill="#00923F" transform="translate(28,106)"/>
<path d="M0 0 C4.07383872 1.33325631 5.8267978 2.74644421 8.4375 6.125 C9.5625 8.5625 9.5625 8.5625 9.4375 11.125 C7.96415855 13.40247286 6.32612293 15.14424913 4.4375 17.125 C0.5927454 16.57328634 -1.07123547 14.91037669 -3.6875 12.125 C-6.33310724 9.23214412 -6.33310724 9.23214412 -9.5625 7.125 C-9.5625 5.125 -9.5625 5.125 -7 2.4375 C-4.31586941 0.30412262 -3.63916744 0.12769009 0 0 Z M-2.5625 4.125 C-2.5625 5.445 -2.5625 6.765 -2.5625 8.125 C0.36071965 10.40739171 0.36071965 10.40739171 3.4375 12.125 C4.0975 11.135 4.7575 10.145 5.4375 9.125 C3.12517578 6.56250025 3.12517578 6.56250025 0.4375 4.125 C-0.5525 4.125 -1.5425 4.125 -2.5625 4.125 Z " fill="#00923F" transform="translate(242.5625,231.875)"/>
<path d="M0 0 C2.375 1.5625 2.375 1.5625 4 4 C4.0750198 8.20110856 3.6961374 10.22196409 0.875 13.375 C-2.59240295 15.33483645 -5.01233226 16 -9 16 C-11.5 14.5 -11.5 14.5 -13 12 C-13.0625 8.5 -13.0625 8.5 -12 5 C-8.2468861 1.34311979 -5.29269322 -0.63008253 0 0 Z M-9 7 C-8.67 8.65 -8.34 10.3 -8 12 C-5.28324005 11.63287028 -3.38936287 11.27255401 -1.125 9.6875 C0.25209095 8.02819169 0.25209095 8.02819169 -0.3125 5.8125 C-0.539375 5.214375 -0.76625 4.61625 -1 4 C-4.57575896 4 -6.05295935 5.08840607 -9 7 Z " fill="#00923F" transform="translate(262,70)"/>
<path d="M0 0 C3.13033973 1.28424194 4.47855809 2.20151155 6.4375 5 C7.31025696 8.04346015 7.68112621 10.8386599 7.4375 14 C5.543281 16.98703766 4.42076762 17.77309209 1 18.5625 C-2.88153475 17.71045579 -4.22186279 16.18586731 -6.5625 13 C-7.55783503 9.92649292 -7.96962656 7.21510236 -7.5625 4 C-5.14735314 1.01658329 -3.86715866 0 0 0 Z M-3.5625 5 C-3.2325 7.31 -2.9025 9.62 -2.5625 12 C-0.0875 12.99 -0.0875 12.99 2.4375 14 C2.7675 13.67 3.0975 13.34 3.4375 13 C3.34441463 9.51381119 3.34441463 9.51381119 2.4375 6 C-0.00032818 4.11264915 -0.75348154 3.59549077 -3.5625 5 Z " fill="#00923F" transform="translate(92.5625,25)"/>
<path d="M0 0 C3.1875 0.375 3.1875 0.375 5.625 2.4375 C7.68899048 6.31780211 7.3843578 8.18599771 6.1875 12.375 C4.44166057 15.14426254 3.16554077 16.87020476 0.25 18.375 C-2.76859582 18.375 -4.41552856 17.12414132 -6.8125 15.375 C-8.24554064 12.50891871 -8.11894155 10.56199217 -7.8125 7.375 C-3.79476467 0.50596862 -3.79476467 0.50596862 0 0 Z M-1.8125 4.375 C-3.43199011 6.94713134 -3.85658751 8.05169159 -3.4375 11.125 C-3.23125 11.8675 -3.025 12.61 -2.8125 13.375 C-1.1625 13.045 0.4875 12.715 2.1875 12.375 C2.5175 10.065 2.8475 7.755 3.1875 5.375 C1.5375 5.045 -0.1125 4.715 -1.8125 4.375 Z " fill="#00923F" transform="translate(182.8125,15.625)"/>
<path d="M0 0 C0.99 3.3 1.98 6.6 3 10 C1.68 10.33 0.36 10.66 -1 11 C-1.28875 10.195625 -1.5775 9.39125 -1.875 8.5625 C-2.73262568 5.8673532 -2.73262568 5.8673532 -5 5 C-4.34 7.31 -3.68 9.62 -3 12 C-4.32 12.33 -5.64 12.66 -7 13 C-7.33 11.02 -7.66 9.04 -8 7 C-8.99 7.66 -9.98 8.32 -11 9 C-10.34 10.98 -9.68 12.96 -9 15 C-10.32 15.33 -11.64 15.66 -13 16 C-16 9.5 -16 9.5 -16 5 C-13.89828133 4.1605118 -11.79353375 3.32860344 -9.6875 2.5 C-8.51574219 2.0359375 -7.34398437 1.571875 -6.13671875 1.09375 C-3 0 -3 0 0 0 Z " fill="#00923F" transform="translate(279,100)"/>
<path d="M0 0 C3.70858842 1.29333126 5.73646277 3.6925399 8.25 6.625 C8.95640625 7.44226562 9.6628125 8.25953125 10.390625 9.1015625 C10.92171875 9.72804688 11.4528125 10.35453125 12 11 C11.67 11.99 11.34 12.98 11 14 C10.4225 13.67 9.845 13.34 9.25 13 C6.80116138 11.72924102 6.80116138 11.72924102 3 12 C4.98 14.97 4.98 14.97 7 18 C5.33203125 18.79296875 5.33203125 18.79296875 3 19 C0.38671875 17.05078125 0.38671875 17.05078125 -2.3125 14.3125 C-3.21613281 13.42175781 -4.11976562 12.53101563 -5.05078125 11.61328125 C-7 9 -7 9 -6.79296875 6.66796875 C-6.40044922 5.84232422 -6.40044922 5.84232422 -6 5 C-5.401875 5.33 -4.80375 5.66 -4.1875 6 C-1.94613529 7.20787988 -1.94613529 7.20787988 1 7 C1.33 6.34 1.66 5.68 2 5 C0.68 4.34 -0.64 3.68 -2 3 C-2 2.34 -2 1.68 -2 1 C-1.34 0.67 -0.68 0.34 0 0 Z " fill="#00923F" transform="translate(58,47)"/>
<path d="M0 0 C0 0.66 0 1.32 0 2 C0.94875 2.28875 1.8975 2.5775 2.875 2.875 C6 4 6 4 8 6 C7.8528623 9.45773598 7.55210063 11.36902785 5.25 14 C3 15 3 15 0.25 14.1875 C-0.4925 13.795625 -1.235 13.40375 -2 13 C-1.67 12.01 -1.34 11.02 -1 10 C0.32303717 9.6278958 1.65737935 9.29369827 3 9 C3.33 8.34 3.66 7.68 4 7 C3.113125 7.515625 2.22625 8.03125 1.3125 8.5625 C-2.22045555 10.09566939 -3.44953056 10.28211396 -7 9 C-9 7 -9 7 -9.375 4.5625 C-9 2 -9 2 -7.3125 0.125 C-4.42729162 -1.27861489 -3.01268757 -0.92054342 0 0 Z M-4 3 C-4 3.99 -4 4.98 -4 6 C-3.34 5.34 -2.68 4.68 -2 4 C-2.66 3.67 -3.32 3.34 -4 3 Z " fill="#00923F" transform="translate(255,220)"/>
<path d="M0 0 C2.375 1.875 2.375 1.875 3.25 4.4375 C3.375 6.875 3.375 6.875 2.375 8.875 C1.385 8.875 0.395 8.875 -0.625 8.875 C-0.83125 9.65875 -1.0375 10.4425 -1.25 11.25 C-2.625 13.875 -2.625 13.875 -5.75 15.1875 C-7.173125 15.5278125 -7.173125 15.5278125 -8.625 15.875 C-11.1875 13.6875 -11.1875 13.6875 -13.625 10.875 C-13.4375 8.0625 -13.4375 8.0625 -12.625 5.875 C-11.305 5.875 -9.985 5.875 -8.625 5.875 C-8.295 7.525 -7.965 9.175 -7.625 10.875 C-6.3319832 8.79517483 -6.3319832 8.79517483 -7.1875 5.9375 C-7.625 2.875 -7.625 2.875 -5.625 -0.125 C-2.625 -1.125 -2.625 -1.125 0 0 Z M-2.625 2.875 C-2.955 3.535 -3.285 4.195 -3.625 4.875 C-2.965 5.535 -2.305 6.195 -1.625 6.875 C-1.625 5.555 -1.625 4.235 -1.625 2.875 C-1.955 2.875 -2.285 2.875 -2.625 2.875 Z " fill="#00923F" transform="translate(253.625,59.125)"/>
<path d="M0 0 C4.49316995 4.09671378 7.97813973 8.71434062 11 14 C11 14.66 11 15.32 11 16 C7.66666667 15.33333333 4.33333333 14.66666667 1 14 C0.67 15.65 0.34 17.3 0 19 C-0.99 19 -1.98 19 -3 19 C-3.0809313 16.39521117 -3.14045434 13.79293347 -3.1875 11.1875 C-3.22520508 10.08051758 -3.22520508 10.08051758 -3.26367188 8.95117188 C-3.33834499 3.45025238 -3.33834499 3.45025238 -1.48828125 0.98828125 C-0.99714844 0.66214844 -0.50601563 0.33601563 0 0 Z M1 7 C1 7.99 1 8.98 1 10 C1.66 9.67 2.32 9.34 3 9 C2.34 8.34 1.68 7.68 1 7 Z " fill="#00923F" transform="translate(115,16)"/>
<path d="M0 0 C1.67542976 0.28604898 3.34385343 0.61781233 5 1 C4.54619105 2.89692143 4.08675008 4.79249595 3.625 6.6875 C3.36976563 7.74324219 3.11453125 8.79898438 2.8515625 9.88671875 C2.08094511 12.70406766 1.14501457 15.31668325 0 18 C-1.32 17.67 -2.64 17.34 -4 17 C-3.67 15.35 -3.34 13.7 -3 12 C-6.62885324 11.84850702 -6.62885324 11.84850702 -10 13 C-10.66 12.67 -11.32 12.34 -12 12 C-12 11.01 -12 10.02 -12 9 C-9.62890625 6.9921875 -9.62890625 6.9921875 -6.5625 4.875 C-5.55316406 4.17117187 -4.54382813 3.46734375 -3.50390625 2.7421875 C-2.67761719 2.16726562 -1.85132813 1.59234375 -1 1 C-0.67 0.67 -0.34 0.34 0 0 Z M-3 7 C-2.34 7.66 -1.68 8.32 -1 9 C-1 8.34 -1 7.68 -1 7 C-1.66 7 -2.32 7 -3 7 Z " fill="#00923F" transform="translate(228,38)"/>
<path d="M0 0 C0.66 1.98 1.32 3.96 2 6 C0.35 6.33 -1.3 6.66 -3 7 C-3 5.68 -3 4.36 -3 3 C-4.32 3 -5.64 3 -7 3 C-7.66 5.31 -8.32 7.62 -9 10 C-8.01 10 -7.02 10 -6 10 C-4.66018514 10.3062434 -3.32488113 10.63451555 -2 11 C-2 11.99 -2 12.98 -2 14 C-4.38716874 15.50303217 -5.71065206 16.01411453 -8.5625 15.875 C-11.6231925 14.77628987 -12.57765784 13.92370334 -14 11 C-13.8963185 6.12696956 -12.3019917 3.50211241 -9 0 C-5.93109813 -1.53445094 -3.29905734 -0.54984289 0 0 Z " fill="#00923F" transform="translate(221,31)"/>
<path d="M0 0 C2.91517292 1.07401108 4.77810176 1.77810176 7 4 C7.25 6.5 7.25 6.5 7 9 C6.34 9.66 5.68 10.32 5 11 C6.32 12.65 7.64 14.3 9 16 C7.02 16.99 7.02 16.99 5 18 C4.54109375 17.52949219 4.0821875 17.05898437 3.609375 16.57421875 C-0.91549295 11.96631602 -0.91549295 11.96631602 -6 8 C-5.65120368 4.74456771 -4.97866739 3.98126893 -2.4375 1.75 C-1.633125 1.1725 -0.82875 0.595 0 0 Z M0 5 C0 5.99 0 6.98 0 8 C0.66 8.33 1.32 8.66 2 9 C2.33 7.68 2.66 6.36 3 5 C2.01 5 1.02 5 0 5 Z " fill="#00923F" transform="translate(48,58)"/>
<path d="M0 0 C1.875 1.0625 1.875 1.0625 3 3 C2.6875 6.6875 2.6875 6.6875 2 10 C0.68 10.33 -0.64 10.66 -2 11 C-1.34 12.98 -0.68 14.96 0 17 C-1.32 17.33 -2.64 17.66 -4 18 C-4.81604999 16.0848421 -5.62770632 14.16781166 -6.4375 12.25 C-6.88996094 11.18265625 -7.34242187 10.1153125 -7.80859375 9.015625 C-8.73979553 6.6586159 -9.4784072 4.47007165 -10 2 C-6.53030166 0.41385219 -3.8262394 -0.50345255 0 0 Z M-4 4 C-4.33 4.66 -4.66 5.32 -5 6 C-4.34 6.66 -3.68 7.32 -3 8 C-2.34 7.67 -1.68 7.34 -1 7 C-1 6.01 -1 5.02 -1 4 C-1.99 4 -2.98 4 -4 4 Z " fill="#00923F" transform="translate(107,20)"/>
<path d="M0 0 C1.9375 1.75 1.9375 1.75 3 4 C2.6875 6.75 2.6875 6.75 2 9 C1.01 9.33 0.02 9.66 -1 10 C-1.66 9.67 -2.32 9.34 -3 9 C-2.34 7.35 -1.68 5.7 -1 4 C-4.43230448 4.26393501 -4.43230448 4.26393501 -8 5 C-10.18490007 7.67642489 -10.18490007 7.67642489 -10 10 C-8.68 10 -7.36 10 -6 10 C-6 11.32 -6 12.64 -6 14 C-8.25 14.3125 -8.25 14.3125 -11 14 C-13.4375 11.875 -13.4375 11.875 -15 9 C-14.66460471 5.71312618 -14.02874775 3.8971325 -11.50390625 1.6953125 C-7.5143352 -0.88147058 -4.63853564 -1.68674023 0 0 Z " fill="#00923F" transform="translate(271,84)"/>
<path d="M0 0 C2.5 2.1875 2.5 2.1875 4 5 C4 8.1874528 3.45460573 9.47545493 1.375 11.875 C-2.10977086 13.52568093 -4.33631653 12.9991864 -8 12 C-10 10.3125 -10 10.3125 -11 8 C-10.875 4.875 -10.875 4.875 -10 2 C-6.26744552 -0.48836965 -4.41559065 -0.54226552 0 0 Z M-7 4 C-6.67 5.65 -6.34 7.3 -6 9 C-4.35 9 -2.7 9 -1 9 C-0.3185177 7.10820797 -0.3185177 7.10820797 0 5 C-0.66 4.34 -1.32 3.68 -2 3 C-4.9254644 2.7763932 -4.9254644 2.7763932 -7 4 Z " fill="#00923F" transform="translate(154,49)"/>
<path d="M0 0 C2.30072384 2.30072384 2.39281611 3.2521457 2.9375 6.375 C3.66302061 10.02600696 4.64656063 12.08621792 7 15 C6.67 15.99 6.34 16.98 6 18 C5.01 18 4.02 18 3 18 C2.46375 17.2575 1.9275 16.515 1.375 15.75 C-1.83631832 12.03163142 -5.4819233 10.7280678 -10 9 C-10 8.34 -10 7.68 -10 7 C-6.71303767 6.20046862 -5.28976808 5.90341064 -2 7 C-2 5.02 -2 3.04 -2 1 C-1.34 0.67 -0.68 0.34 0 0 Z " fill="#00923F" transform="translate(70,37)"/>
<path d="M0 0 C0.1875 2.375 0.1875 2.375 0 5 C-0.99 5.66 -1.98 6.32 -3 7 C-2.360625 7.226875 -1.72125 7.45375 -1.0625 7.6875 C1 9 1 9 1.75 11.625 C1.87375 12.800625 1.87375 12.800625 2 14 C1.45472656 13.7834375 0.90945313 13.566875 0.34765625 13.34375 C-5.3594197 11.23652196 -9.9262767 10.71077508 -16 11 C-16.33 10.01 -16.66 9.02 -17 8 C-16.34773438 7.75765625 -15.69546875 7.5153125 -15.0234375 7.265625 C-11.29488199 5.83579545 -3.54337135 0 0 0 Z " fill="#00923F" transform="translate(286,124)"/>
<path d="M0 0 C1.32 0 2.64 0 4 0 C4.99 3.63 5.98 7.26 7 11 C5.68 11.33 4.36 11.66 3 12 C2.34 11.01 1.68 10.02 1 9 C-0.216875 9.350625 -1.43375 9.70125 -2.6875 10.0625 C-6.12086896 10.93456352 -8.55349859 11.07703169 -12 10 C-12 9.01 -12 8.02 -12 7 C-10.58461283 6.66127487 -9.16762037 6.32925376 -7.75 6 C-6.56664062 5.7215625 -6.56664062 5.7215625 -5.359375 5.4375 C-3 5 -3 5 1 5 C0.67 3.35 0.34 1.7 0 0 Z " fill="#00923F" transform="translate(279,112)"/>
<path d="M0 0 C0.66 0 1.32 0 2 0 C2 2.97 2 5.94 2 9 C0.08496326 9.22281874 -1.83216506 9.42771076 -3.75 9.625 C-4.81734375 9.74101563 -5.8846875 9.85703125 -6.984375 9.9765625 C-10.03792399 10.00029475 -11.46162421 9.61420985 -14 8 C-14 7.01 -14 6.02 -14 5 C-12.02 5 -10.04 5 -8 5 C-8 4.01 -8 3.02 -8 2 C-6.2984375 1.7834375 -6.2984375 1.7834375 -4.5625 1.5625 C-1.19222799 1.38828522 -1.19222799 1.38828522 0 0 Z " fill="#00923F" transform="translate(178,111)"/>
<path d="M0 0 C0 1.32 0 2.64 0 4 C-1.32 4 -2.64 4 -4 4 C-3.67 5.19625 -3.34 6.3925 -3 7.625 C-2.10734177 11.15791497 -1.81703955 14.34079109 -2 18 C-3.32 18 -4.64 18 -6 18 C-6.66 14.04 -7.32 10.08 -8 6 C-9.32 6 -10.64 6 -12 6 C-12 4.68 -12 3.36 -12 2 C-10.7625 1.67 -9.525 1.34 -8.25 1 C-7.55390625 0.814375 -6.8578125 0.62875 -6.140625 0.4375 C-4 0 -4 0 0 0 Z " fill="#00923F" transform="translate(133,13)"/>
<path d="M0 0 C1.32 0 2.64 0 4 0 C3.67 4.29 3.34 8.58 3 13 C5.97 13.495 5.97 13.495 9 14 C9 15.32 9 16.64 9 18 C5.13013042 18.07442057 1.7264085 18.04702186 -2 17 C-1.85848172 14.9163691 -1.71162064 12.83310062 -1.5625 10.75 C-1.48128906 9.58984375 -1.40007812 8.4296875 -1.31640625 7.234375 C-1.06752213 4.69022624 -0.71885058 2.44046752 0 0 Z " fill="#00923F" transform="translate(165,13)"/>
<path d="M0 0 C-0.66 1.32 -1.32 2.64 -2 4 C-1.566875 4.61488281 -1.13375 5.22976562 -0.6875 5.86328125 C0.1478125 7.07564453 0.1478125 7.07564453 1 8.3125 C1.556875 9.11300781 2.11375 9.91351563 2.6875 10.73828125 C4 13 4 13 4 16 C3.01 16.33 2.02 16.66 1 17 C0.55269531 16.28972656 0.10539062 15.57945313 -0.35546875 14.84765625 C-0.96003906 13.92855469 -1.56460938 13.00945313 -2.1875 12.0625 C-2.77917969 11.14597656 -3.37085937 10.22945312 -3.98046875 9.28515625 C-6.3071956 6.65239956 -7.56140181 6.27912628 -11 6 C-9.89210592 2.67631776 -9.51563783 2.38436907 -6.625 0.75 C-6.01914063 0.39421875 -5.41328125 0.0384375 -4.7890625 -0.328125 C-3 -1 -3 -1 0 0 Z " fill="#00923F" transform="translate(83,32)"/>
<path d="M0 0 C1.32 0.33 2.64 0.66 4 1 C4 1.66 4 2.32 4 3 C3.34 3 2.68 3 2 3 C1.731875 3.556875 1.46375 4.11375 1.1875 4.6875 C-0.10122647 7.19712523 -1.52926478 9.59334236 -3 12 C-2.01 12.99 -1.02 13.98 0 15 C-0.33 15.99 -0.66 16.98 -1 18 C-4.79588866 17.45773019 -6.47211993 15.79872437 -9 13 C-7.47987323 7.59510481 -3.72614782 4.01507372 0 0 Z " fill="#00923F" transform="translate(237,45)"/>
<path d="M0 0 C0.33 0.99 0.66 1.98 1 3 C-7.95588235 9.39705882 -7.95588235 9.39705882 -13.875 8.625 C-14.57625 8.41875 -15.2775 8.2125 -16 8 C-16.33 6.35 -16.66 4.7 -17 3 C-14 2 -14 2 -12.140625 2.52734375 C-9.28705168 3.15742107 -7.5055172 2.46892013 -4.75 1.5625 C-3.41195312 1.13130859 -3.41195312 1.13130859 -2.046875 0.69140625 C-1.37140625 0.46324219 -0.6959375 0.23507813 0 0 Z " fill="#00923F" transform="translate(133,118)"/>
<path d="M0 0 C0.99 0.33 1.98 0.66 3 1 C3.66 4.3 4.32 7.6 5 11 C3.02 11.99 3.02 11.99 1 13 C-1.0343459 11.58480285 -1.90410393 10.45017877 -2.421875 8.01953125 C-2.66273952 6.01823046 -2.83532741 4.0090056 -3 2 C-2.01 1.34 -1.02 0.68 0 0 Z " fill="#00923F" transform="translate(128,144)"/>
<path d="M0 0 C1.32 0.33 2.64 0.66 4 1 C2.62712658 4.69876091 0.93644547 7.9514476 -1.125 11.3125 C-1.66382812 12.19550781 -2.20265625 13.07851563 -2.7578125 13.98828125 C-3.16773437 14.65214844 -3.57765625 15.31601562 -4 16 C-5.32 15.67 -6.64 15.34 -8 15 C-7.35256333 11.17009294 -5.54688763 8.4716102 -3.4375 5.25 C-2.79683594 4.26515625 -2.15617187 3.2803125 -1.49609375 2.265625 C-1.00238281 1.51796875 -0.50867188 0.7703125 0 0 Z " fill="#00923F" transform="translate(82,251)"/>
<path d="M0 0 C5.61 0.66 11.22 1.32 17 2 C17 3.32 17 4.64 17 6 C14.54126232 5.85941524 12.08314825 5.71277001 9.625 5.5625 C8.92632812 5.52318359 8.22765625 5.48386719 7.5078125 5.44335938 C2.2265625 5.11328125 2.2265625 5.11328125 0 4 C0 2.68 0 1.36 0 0 Z " fill="#00923F" transform="translate(13,132)"/>
<path d="M0 0 C1.32 0.33 2.64 0.66 4 1 C2.56835889 4.65938172 1.01065704 8.23988068 -0.625 11.8125 C-1.29402344 13.27623047 -1.29402344 13.27623047 -1.9765625 14.76953125 C-2.48316406 15.87361328 -2.48316406 15.87361328 -3 17 C-4.32 16.67 -5.64 16.34 -7 16 C-5.35433477 10.31497465 -2.70967216 5.23318364 0 0 Z " fill="#00923F" transform="translate(208,25)"/>
<path d="M0 0 C5.20638101 1.63133272 10.24581009 3.2663408 15 6 C15.33 6.66 15.66 7.32 16 8 C15.67 8.66 15.34 9.32 15 10 C9.53262809 8.25192871 4.24175152 6.34205919 -1 4 C-0.67 2.68 -0.34 1.36 0 0 Z " fill="#00923F" transform="translate(22,98)"/>
<path d="M0 0 C0 1.32 0 2.64 0 4 C-2.09836004 5.03271642 -4.20390891 6.05083717 -6.3125 7.0625 C-7.48425781 7.63097656 -8.65601563 8.19945313 -9.86328125 8.78515625 C-13 10 -13 10 -16 9 C-16 8.01 -16 7.02 -16 6 C-13.89915791 4.99303432 -11.79420511 3.9946411 -9.6875 3 C-8.51574219 2.443125 -7.34398437 1.88625 -6.13671875 1.3125 C-3 0 -3 0 0 0 Z " fill="#00923F" transform="translate(277,94)"/>
<path d="M0 0 C4.38894929 3.26720791 8.75259665 6.54898478 13 10 C12.34 11.32 11.68 12.64 11 14 C6.61105071 10.73279209 2.24740335 7.45101522 -2 4 C-1.34 2.68 -0.68 1.36 0 0 Z " fill="#00923F" transform="translate(244,226)"/>
</svg>
